<svg id="svg" version="1.1" width="400" height="400" viewBox="0 0 400 400" xmlns="http://www.w3.org/2000/svg" xmlns:xlink="http://www.w3.org/1999/xlink" style="display: block;"><g id="svgg"><path id="path0" d="M172.973 6.171 C 171.973 6.902,172.392 7.289,174.009 7.128 C 175.263 7.003,175.276 6.983,174.519 6.303 C 173.842 5.694,173.647 5.678,172.973 6.171 M167.000 12.749 C 164.982 13.177,164.961 16.000,166.976 16.000 C 168.397 16.000,168.400 15.996,168.400 14.200 C 168.400 13.210,168.355 12.421,168.300 12.447 C 168.245 12.473,167.660 12.609,167.000 12.749 M154.000 17.000 C 154.000 18.328,154.070 18.400,155.375 18.400 C 156.723 18.400,156.745 18.427,156.523 19.800 L 156.295 21.200 157.973 21.200 C 160.344 21.200,160.372 18.739,158.005 18.400 C 157.010 18.257,156.569 17.970,156.471 17.400 C 156.118 15.361,154.000 15.019,154.000 17.000 M142.200 21.600 C 142.598 22.040,142.986 22.400,143.062 22.400 C 143.138 22.400,143.200 22.040,143.200 21.600 C 143.200 21.047,142.933 20.800,142.338 20.800 C 141.501 20.800,141.497 20.824,142.200 21.600 M162.475 22.500 C 162.679 24.619,165.600 24.735,165.600 22.624 C 165.600 21.226,165.571 21.200,163.975 21.200 C 162.382 21.200,162.352 21.226,162.475 22.500 M217.804 21.606 C 218.041 21.991,217.949 22.066,217.466 21.881 C 217.021 21.710,216.588 21.952,216.154 22.614 C 214.725 24.795,216.023 33.863,217.866 34.570 C 218.585 34.846,218.657 21.806,217.938 21.362 C 217.631 21.172,217.586 21.254,217.804 21.606 M176.039 23.660 C 175.008 26.618,175.895 28.110,178.047 27.037 C 178.749 26.687,179.675 26.400,180.104 26.400 C 180.652 26.400,180.813 26.211,180.643 25.767 C 180.509 25.419,180.400 25.059,180.400 24.967 C 180.400 24.875,180.130 24.800,179.800 24.800 C 179.400 24.800,179.200 24.400,179.200 23.600 C 179.200 21.754,176.687 21.802,176.039 23.660 M148.800 26.826 C 148.800 27.813,149.690 28.800,150.581 28.800 C 151.105 28.800,151.598 28.994,151.677 29.231 C 151.756 29.468,152.446 29.693,153.210 29.731 C 155.145 29.827,155.136 28.677,153.200 28.400 C 152.128 28.247,151.770 27.989,151.672 27.300 C 151.537 26.347,148.800 25.896,148.800 26.826 M187.300 26.657 C 187.025 26.772,186.800 27.397,186.800 28.046 C 186.800 29.476,187.248 29.671,189.665 29.292 L 191.531 29.000 190.665 27.929 C 189.797 26.854,188.235 26.264,187.300 26.657 M146.500 32.265 C 145.212 32.785,145.933 35.200,147.376 35.200 C 149.020 35.200,149.276 34.881,148.948 33.241 C 148.703 32.014,147.908 31.697,146.500 32.265 M204.000 33.771 C 204.000 34.657,204.174 34.800,205.249 34.800 C 206.454 34.800,206.477 34.769,205.901 33.900 C 205.020 32.571,204.000 32.502,204.000 33.771 M229.200 35.944 C 229.200 36.573,229.087 37.909,228.950 38.913 C 228.706 40.693,228.728 40.740,229.848 40.869 C 230.769 40.974,231.037 41.236,231.201 42.195 C 231.514 44.020,232.800 44.069,232.800 42.256 C 232.800 41.023,232.933 40.838,233.900 40.727 C 234.817 40.621,235.021 40.383,235.125 39.300 C 235.240 38.110,235.367 38.000,236.625 38.000 C 237.860 38.000,237.999 37.888,237.994 36.900 C 237.980 34.335,235.530 34.013,234.888 36.492 C 234.662 37.363,234.254 37.846,233.615 37.996 C 233.097 38.119,232.545 38.574,232.386 39.009 C 232.169 39.605,232.025 39.330,231.802 37.890 C 231.390 35.233,229.200 33.595,229.200 35.944 M209.600 36.551 C 209.600 37.412,209.785 37.600,210.633 37.600 C 211.834 37.600,211.766 36.941,210.478 36.085 C 209.649 35.535,209.600 35.561,209.600 36.551 M152.100 46.626 C 142.529 56.248,142.000 56.859,142.000 58.269 C 142.000 59.590,141.687 60.056,139.200 62.427 C 136.628 64.880,136.400 65.229,136.400 66.728 C 136.400 68.122,136.197 68.514,135.000 69.427 C 133.620 70.479,133.600 70.538,133.600 73.482 C 133.600 76.392,133.564 76.500,132.200 77.708 C 130.839 78.913,130.800 79.029,130.800 81.893 C 130.800 84.784,129.790 86.800,128.342 86.800 C 128.154 86.800,128.000 91.377,128.000 96.971 C 128.000 107.830,128.019 107.720,125.969 108.817 C 125.252 109.200,125.200 109.740,125.200 116.804 L 125.200 124.379 126.352 124.975 C 128.006 125.830,128.000 125.786,128.000 137.985 L 128.000 149.105 129.395 150.169 L 130.791 151.234 130.778 158.517 L 130.766 165.800 132.183 166.939 L 133.600 168.078 133.600 172.625 C 133.600 176.932,133.648 177.197,134.500 177.651 C 136.065 178.485,136.374 179.277,136.387 182.486 C 136.398 185.113,136.514 185.633,137.169 185.983 C 138.915 186.918,139.200 187.567,139.200 190.613 C 139.200 192.815,139.360 193.700,139.829 194.084 C 142.108 195.954,142.041 195.756,141.971 200.503 C 141.928 203.373,142.057 205.019,142.332 205.111 C 144.307 205.769,144.851 206.847,144.761 209.923 C 144.675 212.874,144.704 212.974,145.936 214.003 C 147.152 215.018,147.200 215.174,147.200 218.109 C 147.200 221.125,147.216 221.171,148.600 222.227 C 149.814 223.153,150.000 223.521,150.000 225.000 C 150.000 226.479,150.186 226.847,151.400 227.773 C 152.620 228.703,152.800 229.063,152.800 230.573 C 152.800 232.082,152.980 232.442,154.200 233.373 C 155.388 234.279,155.600 234.682,155.600 236.039 C 155.600 237.422,155.867 237.905,157.581 239.619 L 159.562 241.600 180.701 241.600 C 204.023 241.600,202.800 241.747,202.800 238.940 C 202.800 237.468,202.987 237.098,204.200 236.173 C 205.587 235.115,205.600 235.076,205.600 232.015 C 205.600 228.935,206.171 227.600,207.489 227.600 C 208.065 227.600,208.400 226.620,208.400 224.933 C 208.400 223.834,208.702 223.264,209.800 222.292 C 211.159 221.089,211.200 220.967,211.200 218.136 C 211.200 215.312,211.244 215.179,212.600 213.945 C 213.737 212.911,214.000 212.382,214.000 211.132 C 214.000 210.051,214.252 209.385,214.845 208.896 C 216.741 207.333,216.800 207.191,216.800 204.187 C 216.800 201.985,216.960 201.100,217.429 200.716 C 219.585 198.947,219.600 198.912,219.600 195.640 L 219.600 192.479 221.000 191.653 C 222.288 190.893,222.400 190.674,222.405 188.913 C 222.409 187.170,222.534 186.920,223.805 186.096 L 225.200 185.193 225.200 182.008 C 225.200 178.934,225.241 178.793,226.400 177.937 L 227.600 177.050 227.600 172.545 L 227.600 168.041 229.000 166.973 C 230.390 165.913,230.400 165.882,230.400 162.773 C 230.400 159.663,230.410 159.633,231.800 158.573 L 233.200 157.505 233.200 150.353 C 233.200 142.657,233.078 143.165,235.371 141.284 C 236.017 140.754,236.340 130.153,235.757 128.633 C 235.252 127.316,231.922 127.803,230.508 129.400 C 229.505 130.533,228.981 130.800,227.763 130.800 C 226.553 130.800,226.005 131.075,224.974 132.200 C 223.919 133.353,223.410 133.600,222.094 133.600 C 220.737 133.600,220.334 133.812,219.427 135.000 L 218.359 136.400 211.242 136.400 C 203.110 136.400,202.800 136.285,202.800 133.278 C 202.800 131.904,202.989 131.498,203.900 130.918 C 205.401 129.963,205.587 129.632,205.594 127.900 C 205.600 126.466,205.867 126.047,207.771 124.484 C 208.154 124.170,208.400 123.336,208.400 122.350 C 208.400 121.003,208.635 120.524,209.800 119.492 L 211.200 118.253 211.200 112.588 C 211.200 105.707,211.264 105.600,215.378 105.600 L 218.092 105.600 220.240 107.700 L 222.388 109.800 222.394 114.080 L 222.400 118.359 221.000 119.427 C 218.805 121.102,219.483 122.400,222.553 122.400 C 223.690 122.400,224.164 122.132,225.027 121.000 C 225.985 119.744,226.292 119.600,228.008 119.600 C 229.770 119.600,229.986 119.710,230.747 121.000 C 231.489 122.258,231.749 122.400,233.307 122.400 C 236.049 122.400,236.000 122.606,236.000 111.167 L 236.000 100.895 234.600 99.827 L 233.200 98.759 233.200 94.280 L 233.200 89.800 231.800 88.683 C 230.412 87.575,230.400 87.540,230.400 84.393 C 230.400 81.302,230.370 81.205,229.248 80.625 C 227.771 79.861,227.600 79.358,227.600 75.778 C 227.600 72.897,227.569 72.805,226.400 72.200 C 225.340 71.652,225.200 71.372,225.200 69.805 C 225.200 68.120,224.147 66.400,223.116 66.400 C 222.933 66.400,222.591 65.980,222.357 65.466 C 222.123 64.952,221.407 64.222,220.766 63.843 C 219.774 63.257,219.600 62.905,219.597 61.477 C 219.595 59.849,219.424 59.632,213.797 54.074 C 210.609 50.925,208.000 48.192,208.000 48.001 C 208.000 47.810,207.644 47.541,207.208 47.403 C 206.773 47.264,206.125 46.657,205.768 46.053 C 205.411 45.449,204.733 44.785,204.261 44.577 C 203.790 44.370,203.168 43.705,202.880 43.100 C 202.431 42.156,202.116 42.000,200.667 42.000 C 198.896 42.000,197.200 41.129,197.200 40.220 C 197.200 39.382,196.237 39.200,191.796 39.200 C 187.478 39.200,186.977 39.025,185.983 37.169 C 185.591 36.436,185.024 36.402,173.886 36.435 L 162.200 36.471 152.100 46.626 M217.600 41.776 C 217.600 42.533,217.780 43.264,218.000 43.400 C 218.242 43.549,218.400 43.004,218.400 42.024 C 218.400 41.131,218.220 40.400,218.000 40.400 C 217.780 40.400,217.600 41.019,217.600 41.776 M138.267 41.067 C 137.452 41.881,138.029 43.200,139.200 43.200 C 140.267 43.200,140.400 43.067,140.400 42.000 C 140.400 40.829,139.081 40.252,138.267 41.067 M136.300 44.432 C 135.249 45.044,135.432 46.000,136.600 46.000 C 137.400 46.000,137.600 45.800,137.600 45.000 C 137.600 43.911,137.368 43.810,136.300 44.432 M185.669 50.662 C 186.157 51.104,186.400 51.885,186.400 53.015 C 186.400 54.476,186.589 54.849,187.800 55.773 C 189.188 56.831,189.200 56.868,189.200 59.940 C 189.200 65.278,191.633 65.732,195.946 61.200 C 199.466 57.502,200.596 57.393,203.588 60.465 C 205.923 62.862,206.348 64.995,204.751 66.304 C 204.284 66.687,203.699 67.238,203.451 67.529 C 202.923 68.147,201.925 69.116,200.800 70.100 C 200.223 70.604,200.000 71.300,200.000 72.590 C 200.000 74.164,199.859 74.452,198.828 74.985 C 198.184 75.319,197.541 75.955,197.400 76.400 C 197.259 76.845,196.629 77.475,196.000 77.800 C 195.371 78.125,194.741 78.755,194.600 79.200 C 194.459 79.645,193.816 80.281,193.172 80.615 C 192.527 80.948,192.000 81.389,192.000 81.595 C 192.000 82.991,190.240 83.600,186.200 83.600 C 180.065 83.600,180.400 84.268,180.400 72.032 L 180.400 62.095 179.000 61.027 L 177.600 59.959 177.600 55.711 C 177.600 50.238,177.780 50.000,181.930 50.000 C 184.167 50.000,185.124 50.170,185.669 50.662 M130.107 52.100 C 128.979 53.541,129.222 54.400,130.757 54.400 C 132.216 54.400,132.237 54.378,132.076 53.000 C 131.905 51.533,130.907 51.077,130.107 52.100 M231.600 55.175 C 231.600 56.208,231.443 56.364,230.300 56.475 C 228.407 56.657,228.560 57.764,230.500 57.924 C 231.645 58.019,232.000 57.901,232.000 57.424 C 232.000 57.002,232.375 56.800,233.157 56.800 C 234.334 56.800,234.800 56.223,234.800 54.767 C 234.800 54.139,234.511 54.000,233.200 54.000 C 231.697 54.000,231.600 54.071,231.600 55.175 M304.000 58.800 C 304.000 59.867,304.133 60.000,305.200 60.000 C 306.649 60.000,306.802 59.127,305.511 58.223 C 304.252 57.341,304.000 57.437,304.000 58.800 M232.000 61.400 C 232.000 62.689,232.095 62.800,233.200 62.800 C 234.828 62.800,234.958 60.992,233.374 60.390 C 231.967 59.855,232.000 59.830,232.000 61.400 M125.062 61.131 C 124.117 62.176,124.243 62.800,125.400 62.800 C 126.244 62.800,126.400 62.613,126.400 61.600 C 126.400 60.224,126.008 60.087,125.062 61.131 M118.000 64.200 C 118.000 65.533,118.067 65.600,119.400 65.600 C 120.723 65.600,120.800 65.674,120.800 66.948 C 120.800 68.308,123.164 69.396,124.095 68.465 C 125.062 67.498,123.906 65.600,122.350 65.600 C 121.086 65.600,120.800 65.458,120.800 64.829 C 120.800 63.838,119.762 62.800,118.771 62.800 C 118.156 62.800,118.000 63.084,118.000 64.200 M281.867 63.067 C 280.843 64.090,281.638 65.600,283.200 65.600 C 284.762 65.600,284.800 65.633,284.800 67.000 C 284.800 68.300,284.889 68.400,286.043 68.400 C 287.199 68.400,287.267 68.323,287.012 67.304 C 286.732 66.191,286.169 65.617,285.345 65.606 C 285.094 65.603,284.771 64.970,284.626 64.200 C 284.371 62.836,282.759 62.174,281.867 63.067 M234.800 67.000 C 234.800 68.328,234.871 68.400,236.172 68.400 C 237.529 68.400,237.540 68.386,237.172 67.103 C 236.967 66.389,236.800 65.759,236.800 65.703 C 236.800 65.646,236.350 65.600,235.800 65.600 C 234.924 65.600,234.800 65.773,234.800 67.000 M291.854 66.429 C 290.424 67.554,290.487 68.400,292.000 68.400 C 293.105 68.400,293.200 68.289,293.200 67.000 C 293.200 65.355,293.212 65.361,291.854 66.429 M107.995 68.791 C 108.827 70.346,110.000 70.593,110.000 69.214 C 110.000 68.129,109.871 68.000,108.786 68.000 C 107.700 68.000,107.617 68.084,107.995 68.791 M272.492 68.475 C 272.739 69.217,273.600 69.340,273.600 68.633 C 273.600 68.285,273.315 68.000,272.967 68.000 C 272.618 68.000,272.405 68.214,272.492 68.475 M304.000 69.200 C 304.000 70.497,304.560 70.709,305.700 69.843 C 306.845 68.974,306.580 68.000,305.200 68.000 C 304.133 68.000,304.000 68.133,304.000 69.200 M287.600 70.400 C 287.600 70.953,287.867 71.200,288.462 71.200 C 289.299 71.200,289.303 71.176,288.600 70.400 C 288.202 69.960,287.814 69.600,287.738 69.600 C 287.662 69.600,287.600 69.960,287.600 70.400 M110.148 71.700 C 110.281 72.195,110.392 72.721,110.395 72.868 C 110.398 73.016,110.929 73.253,111.577 73.395 C 112.540 73.606,112.776 73.885,112.877 74.927 C 113.093 77.158,115.600 77.065,115.600 74.825 C 115.600 73.234,115.570 73.200,114.200 73.200 C 112.911 73.200,112.800 73.105,112.800 72.000 C 112.800 70.888,112.694 70.800,111.353 70.800 C 110.048 70.800,109.930 70.888,110.148 71.700 M289.681 72.374 C 289.588 73.596,290.150 74.328,290.610 73.584 C 290.929 73.068,290.512 71.200,290.077 71.200 C 289.908 71.200,289.730 71.728,289.681 72.374 M237.600 72.600 C 237.600 73.400,237.800 73.600,238.600 73.600 C 239.804 73.600,239.945 72.613,238.826 72.014 C 237.722 71.423,237.600 71.481,237.600 72.600 M275.292 74.075 C 275.539 74.817,276.400 74.940,276.400 74.233 C 276.400 73.885,276.115 73.600,275.767 73.600 C 275.418 73.600,275.205 73.814,275.292 74.075 M301.200 75.000 C 301.200 76.571,302.212 76.931,303.371 75.771 C 304.531 74.612,304.171 73.600,302.600 73.600 C 301.267 73.600,301.200 73.667,301.200 75.000 M251.200 75.600 C 251.200 76.187,251.467 76.400,252.200 76.400 C 253.370 76.400,253.418 76.275,252.571 75.429 C 251.717 74.574,251.200 74.639,251.200 75.600 M276.467 78.999 L 276.478 81.997 277.739 82.340 C 279.461 82.808,279.986 82.313,279.597 80.588 C 279.425 79.825,279.424 78.579,279.595 77.820 C 279.976 76.132,279.857 76.000,277.961 76.000 L 276.455 76.000 276.467 78.999 M254.000 78.200 C 254.000 79.044,254.187 79.200,255.200 79.200 C 256.535 79.200,256.714 78.771,255.771 77.829 C 254.822 76.880,254.000 77.052,254.000 78.200 M115.600 78.717 C 115.600 78.892,115.015 79.207,114.300 79.417 C 112.624 79.911,112.205 81.748,113.678 82.142 C 115.246 82.562,115.543 82.437,115.673 81.300 C 115.779 80.383,116.017 80.179,117.100 80.075 C 119.053 79.886,118.964 78.400,117.000 78.400 C 116.230 78.400,115.600 78.543,115.600 78.717 M298.540 80.315 C 298.673 81.149,298.592 82.520,298.359 83.363 C 297.840 85.244,298.261 85.782,299.960 85.409 L 301.200 85.136 301.200 81.968 L 301.200 78.800 299.749 78.800 L 298.298 78.800 298.540 80.315 M240.400 81.000 C 240.400 82.420,240.800 82.682,242.167 82.157 C 243.428 81.673,242.968 79.600,241.600 79.600 C 240.495 79.600,240.400 79.711,240.400 81.000 M256.893 80.800 C 256.893 81.570,256.975 81.885,257.076 81.500 C 257.176 81.115,257.176 80.485,257.076 80.100 C 256.975 79.715,256.893 80.030,256.893 80.800 M244.100 81.865 C 242.949 82.329,243.521 84.400,244.800 84.400 C 245.905 84.400,246.000 84.289,246.000 83.000 C 246.000 81.597,245.501 81.299,244.100 81.865 M107.600 82.400 C 107.270 82.613,106.601 82.791,106.114 82.794 C 105.362 82.799,104.067 84.214,104.468 84.594 C 104.540 84.663,105.860 84.783,107.400 84.860 L 110.200 85.000 110.324 83.500 C 110.456 81.908,109.166 81.388,107.600 82.400 M267.709 83.386 C 267.159 85.178,267.766 85.755,269.802 85.373 C 272.427 84.881,272.306 82.000,269.659 82.000 C 268.268 82.000,268.097 82.121,267.709 83.386 M304.000 86.600 C 304.000 87.444,304.187 87.600,305.200 87.600 C 306.576 87.600,306.713 87.208,305.669 86.262 C 304.624 85.317,304.000 85.443,304.000 86.600 M332.279 87.454 C 332.126 87.608,332.000 88.142,332.000 88.643 C 332.000 89.404,331.757 89.572,330.500 89.676 C 328.425 89.848,328.122 92.900,330.157 93.132 C 331.458 93.281,331.985 92.712,331.994 91.150 C 331.999 90.305,332.235 90.053,333.200 89.860 C 334.347 89.631,335.095 87.600,334.033 87.600 C 333.831 87.600,333.416 87.504,333.112 87.388 C 332.807 87.271,332.433 87.301,332.279 87.454 M316.300 87.876 C 314.781 88.273,315.386 90.800,317.000 90.800 C 318.367 90.800,318.400 90.762,318.400 89.200 C 318.400 87.546,318.154 87.391,316.300 87.876 M146.500 89.357 C 146.885 89.649,147.200 90.099,147.200 90.358 C 147.200 90.616,147.830 91.199,148.600 91.653 C 149.370 92.107,150.000 92.737,150.000 93.053 C 150.000 93.369,150.602 93.982,151.337 94.416 C 152.072 94.850,152.871 95.638,153.112 96.168 C 153.354 96.697,153.883 97.236,154.289 97.365 C 154.695 97.494,155.340 98.128,155.722 98.775 C 156.104 99.422,156.744 100.055,157.144 100.182 C 157.544 100.309,158.101 100.841,158.381 101.365 C 158.661 101.888,159.410 102.701,160.045 103.170 C 160.972 103.856,161.200 104.329,161.200 105.572 C 161.200 106.962,161.487 107.401,164.000 109.856 L 166.800 112.593 166.800 115.365 C 166.800 118.773,166.222 119.600,163.838 119.600 C 162.445 119.600,162.033 119.810,161.083 121.000 C 160.109 122.221,159.739 122.400,158.197 122.400 C 156.861 122.400,156.327 122.588,156.017 123.169 C 155.069 124.939,154.448 125.200,151.182 125.200 C 148.103 125.200,148.005 125.230,147.425 126.352 C 145.948 129.208,135.600 128.541,135.600 125.588 C 135.600 125.426,135.241 125.199,134.802 125.085 C 133.306 124.694,133.423 123.678,135.156 121.997 C 136.060 121.119,136.800 120.221,136.800 120.000 C 136.800 119.780,137.696 119.600,138.791 119.600 C 140.526 119.600,140.871 119.459,141.482 118.500 C 142.503 116.895,142.718 116.813,145.900 116.806 C 148.882 116.800,148.965 116.762,150.716 114.629 C 151.024 114.253,151.858 114.000,152.787 114.000 C 155.641 114.000,156.106 112.711,153.918 110.869 C 153.009 110.105,152.800 109.603,152.800 108.187 C 152.800 106.676,152.641 106.351,151.599 105.736 C 150.939 105.346,150.296 104.704,150.171 104.309 C 150.046 103.914,149.429 103.325,148.800 103.000 C 148.171 102.675,147.538 102.036,147.394 101.580 C 147.249 101.124,146.697 100.554,146.168 100.312 C 145.638 100.071,144.850 99.272,144.416 98.537 C 143.982 97.802,143.357 97.200,143.028 97.200 C 141.432 97.200,140.926 91.074,142.400 89.600 C 143.321 88.679,145.441 88.553,146.500 89.357 M243.200 90.150 C 243.200 90.673,243.088 91.663,242.950 92.350 C 242.701 93.593,242.709 93.600,244.400 93.600 L 246.100 93.600 245.841 92.305 C 245.699 91.593,245.108 90.603,244.529 90.105 C 243.225 88.984,243.200 88.985,243.200 90.150 M249.200 91.166 C 249.200 91.633,249.669 92.141,250.400 92.464 C 251.902 93.129,252.217 96.442,250.847 97.175 C 249.620 97.832,249.464 98.800,250.586 98.800 C 251.329 98.800,251.576 98.558,251.673 97.731 C 251.774 96.882,252.047 96.631,253.000 96.507 C 255.736 96.151,255.970 92.829,253.300 92.253 C 252.042 91.982,251.600 91.693,251.600 91.143 C 251.600 90.584,251.303 90.400,250.400 90.400 C 249.484 90.400,249.200 90.582,249.200 91.166 M312.244 91.368 C 311.759 93.299,312.539 93.927,314.700 93.348 C 315.358 93.171,315.600 92.810,315.600 92.000 C 315.600 90.246,312.664 89.694,312.244 91.368 M275.209 92.976 C 274.727 94.244,273.638 94.800,271.637 94.800 C 270.254 94.800,269.933 94.969,269.415 95.972 C 269.081 96.616,268.486 97.246,268.091 97.371 C 267.696 97.496,267.060 98.128,266.678 98.775 C 266.296 99.422,265.627 100.064,265.192 100.203 C 264.756 100.341,264.400 100.605,264.400 100.789 C 264.400 100.973,261.791 103.706,258.602 106.862 C 252.976 112.431,252.804 112.650,252.802 114.277 C 252.800 115.716,252.629 116.056,251.599 116.664 C 250.939 117.054,250.296 117.696,250.171 118.091 C 250.046 118.486,249.438 119.070,248.820 119.390 C 247.307 120.172,247.200 120.585,247.200 125.622 L 247.200 129.979 246.000 130.600 L 244.800 131.221 244.777 141.310 C 244.740 157.183,244.815 160.137,245.272 160.687 C 245.598 161.079,248.028 161.200,255.585 161.200 L 265.471 161.200 266.745 159.800 L 268.019 158.400 272.310 158.394 C 276.782 158.387,277.286 158.266,277.722 157.085 C 277.867 156.692,278.528 156.062,279.191 155.685 C 279.853 155.308,280.396 154.803,280.397 154.562 C 280.403 153.590,281.897 152.800,283.731 152.800 C 284.759 152.800,285.600 152.625,285.600 152.412 C 285.600 151.905,301.905 135.600,302.412 135.600 C 302.625 135.600,302.800 134.728,302.800 133.662 C 302.800 131.765,303.590 130.400,304.689 130.400 C 305.262 130.400,305.600 129.423,305.600 127.767 C 305.600 126.477,305.906 126.015,307.771 124.484 C 308.715 123.710,308.715 104.372,307.771 103.429 C 307.426 103.083,306.986 102.800,306.794 102.800 C 306.602 102.800,306.135 102.275,305.757 101.634 C 305.378 100.993,304.663 100.284,304.169 100.058 C 303.674 99.833,303.151 99.276,303.006 98.820 C 302.862 98.364,302.229 97.725,301.600 97.400 C 300.971 97.075,300.341 96.445,300.200 96.000 C 300.059 95.555,299.408 94.915,298.754 94.576 C 298.101 94.238,297.398 93.520,297.193 92.981 L 296.820 92.000 286.200 92.000 L 275.580 92.000 275.209 92.976 M114.524 92.998 C 113.555 93.677,113.564 95.016,114.553 97.361 C 115.404 99.381,115.535 99.178,115.637 95.685 C 115.734 92.380,115.660 92.202,114.524 92.998 M326.400 97.200 C 326.400 98.474,326.775 98.655,328.026 97.986 C 329.302 97.303,329.023 96.000,327.600 96.000 C 326.533 96.000,326.400 96.133,326.400 97.200 M284.209 99.357 L 286.400 101.513 286.400 107.308 C 286.400 114.959,286.598 115.159,290.324 111.251 L 293.043 108.400 295.748 108.400 C 299.820 108.400,300.000 108.578,300.000 112.591 C 300.000 115.905,299.982 115.965,298.799 116.664 C 298.139 117.054,297.496 117.696,297.371 118.091 C 297.246 118.486,296.616 119.081,295.972 119.415 C 295.327 119.748,294.800 120.227,294.800 120.479 C 294.800 121.580,293.454 122.400,291.638 122.405 C 289.980 122.409,289.711 122.547,288.896 123.805 L 287.993 125.200 284.783 125.200 L 281.573 125.200 280.747 123.800 C 280.024 122.574,279.724 122.400,278.334 122.400 C 275.064 122.400,275.200 122.888,275.200 111.177 L 275.200 100.783 276.198 100.328 C 276.747 100.078,277.550 99.272,277.984 98.537 C 279.298 96.310,281.394 96.587,284.209 99.357 M245.574 99.869 C 245.034 101.289,245.361 102.000,246.555 102.000 C 248.305 102.000,248.800 101.594,248.800 100.157 C 248.800 98.298,246.257 98.071,245.574 99.869 M323.759 101.267 C 323.645 101.450,324.193 101.600,324.976 101.600 C 325.759 101.600,326.400 101.530,326.400 101.445 C 326.400 101.117,323.954 100.951,323.759 101.267 M328.800 103.000 C 328.800 104.367,328.838 104.400,330.400 104.400 C 332.056 104.400,332.386 103.872,331.757 102.233 C 331.211 100.809,328.800 101.434,328.800 103.000 M320.259 112.275 C 320.169 112.365,320.264 113.105,320.470 113.919 L 320.845 115.400 325.315 115.273 C 328.194 115.192,329.893 114.978,330.087 114.673 C 330.592 113.878,330.436 112.400,329.847 112.400 C 329.543 112.400,327.298 112.335,324.858 112.255 C 322.419 112.176,320.349 112.185,320.259 112.275 M318.000 125.778 C 318.000 128.974,318.268 129.338,319.579 127.930 C 321.352 126.027,321.190 123.120,319.300 122.904 L 318.000 122.756 318.000 125.778 M263.880 130.400 C 265.329 130.400,265.706 130.592,266.627 131.800 L 267.695 133.200 272.047 133.200 C 275.961 133.200,276.477 133.285,277.160 134.040 C 277.578 134.502,278.073 135.047,278.260 135.251 C 278.447 135.455,279.645 136.613,280.923 137.824 C 283.356 140.131,283.658 141.274,281.975 141.808 C 281.544 141.945,280.930 142.562,280.610 143.180 C 279.413 145.496,274.335 145.619,272.535 143.375 L 271.392 141.950 268.030 141.958 C 264.275 141.966,264.016 142.132,264.006 144.534 C 264.001 145.781,263.738 146.301,262.600 147.308 C 261.243 148.509,261.200 148.636,261.200 151.445 C 261.200 155.262,260.858 155.600,257.000 155.600 C 253.448 155.600,252.800 155.134,252.800 152.582 C 252.800 151.046,252.653 150.744,251.648 150.225 C 249.897 149.319,249.835 148.566,251.416 147.361 L 252.800 146.305 252.800 141.773 L 252.800 137.241 254.200 136.173 C 255.394 135.262,255.600 134.867,255.600 133.484 C 255.600 131.827,256.462 130.400,257.462 130.400 C 257.758 130.400,258.000 130.244,258.000 130.054 C 258.000 129.864,258.394 129.207,258.875 128.595 L 259.750 127.482 260.975 128.941 C 262.027 130.194,262.438 130.400,263.880 130.400 M106.800 133.800 C 106.800 134.644,106.987 134.800,108.000 134.800 C 109.325 134.800,109.389 134.700,108.786 133.574 C 108.162 132.408,106.800 132.563,106.800 133.800 M314.871 135.005 C 313.671 137.637,314.542 138.997,316.896 138.166 C 317.779 137.855,319.001 137.600,319.613 137.600 C 321.055 137.600,320.806 136.159,319.244 135.474 C 318.670 135.222,318.076 134.841,317.926 134.626 C 317.277 133.704,315.355 133.942,314.871 135.005 M109.600 136.370 C 109.600 137.818,109.621 137.837,111.022 137.673 C 113.015 137.441,112.924 135.575,110.900 135.165 C 109.621 134.905,109.600 134.925,109.600 136.370 M113.280 135.680 C 112.359 136.601,112.710 137.600,113.954 137.600 C 114.589 137.600,115.624 137.869,116.254 138.198 C 117.714 138.959,118.571 138.957,119.206 138.192 C 119.967 137.276,118.646 136.000,116.938 136.000 C 116.202 136.000,115.600 135.820,115.600 135.600 C 115.600 135.040,113.860 135.100,113.280 135.680 M188.225 136.751 C 188.651 137.164,189.289 137.839,189.643 138.251 C 189.996 138.663,190.671 139.313,191.143 139.696 C 192.869 141.098,192.334 142.742,189.211 145.625 C 186.673 147.968,186.420 148.344,186.398 149.800 C 186.376 151.294,185.685 152.800,185.021 152.800 C 184.861 152.800,183.751 153.835,182.554 155.100 C 181.357 156.365,180.191 157.580,179.961 157.800 C 179.732 158.020,178.243 159.505,176.652 161.100 C 172.388 165.375,172.208 165.341,166.038 159.124 C 161.640 154.691,161.200 154.116,161.200 152.798 C 161.200 151.673,160.908 151.078,159.900 150.150 C 159.185 149.492,158.330 148.655,158.000 148.290 C 157.670 147.925,156.995 147.260,156.500 146.813 C 155.726 146.114,155.600 145.599,155.600 143.131 C 155.600 139.250,156.030 138.800,159.730 138.800 C 163.127 138.800,164.000 139.383,164.000 141.652 C 164.000 144.136,170.032 150.000,172.588 150.000 C 174.671 150.000,175.200 149.360,175.200 146.837 C 175.200 145.454,175.369 145.133,176.372 144.615 C 177.016 144.281,177.659 143.645,177.800 143.200 C 177.941 142.755,178.584 142.119,179.228 141.785 C 180.257 141.254,180.400 140.962,180.400 139.405 C 180.400 136.212,185.782 134.386,188.225 136.751 M326.400 139.200 C 326.400 140.267,326.533 140.400,327.600 140.400 C 328.889 140.400,329.258 139.418,328.320 138.480 C 327.382 137.542,326.400 137.911,326.400 139.200 M102.000 143.856 C 102.000 144.568,103.096 145.567,103.900 145.587 C 104.192 145.595,104.400 145.100,104.400 144.400 C 104.400 143.333,104.267 143.200,103.200 143.200 C 102.355 143.200,102.000 143.394,102.000 143.856 M107.200 146.426 C 107.200 147.432,108.090 148.400,109.014 148.400 C 109.843 148.400,110.000 148.209,110.000 147.200 C 110.000 146.095,109.889 146.000,108.600 146.000 C 107.830 146.000,107.200 146.192,107.200 146.426 M113.500 148.424 C 112.165 149.217,112.585 151.192,114.100 151.247 L 115.400 151.295 114.200 151.549 C 113.196 151.762,112.979 152.021,112.872 153.132 C 112.772 154.176,112.503 154.545,111.614 154.855 C 109.808 155.485,109.692 157.200,111.455 157.200 C 112.710 157.200,112.800 157.111,112.800 155.880 C 112.800 154.608,112.850 154.566,114.200 154.724 L 115.600 154.888 115.667 152.244 C 115.703 150.790,115.748 149.285,115.767 148.900 C 115.806 148.079,114.531 147.811,113.500 148.424 M321.120 148.686 C 316.618 148.987,319.686 151.200,324.605 151.200 L 327.651 151.200 327.525 149.900 C 327.386 148.458,326.643 148.317,321.120 148.686 M302.700 151.124 C 301.115 151.255,300.493 153.133,301.650 154.290 C 302.211 154.851,302.307 158.773,301.863 163.049 L 301.526 166.298 302.780 166.482 C 303.471 166.584,304.101 166.560,304.182 166.430 C 304.398 166.080,304.589 151.244,304.379 151.113 C 304.281 151.051,303.525 151.056,302.700 151.124 M298.800 155.000 C 298.800 156.170,298.925 156.218,299.771 155.371 C 300.626 154.517,300.561 154.000,299.600 154.000 C 299.013 154.000,298.800 154.267,298.800 155.000 M296.000 158.000 C 296.000 159.433,296.121 159.466,297.184 158.325 C 298.258 157.172,298.213 156.800,297.000 156.800 C 296.156 156.800,296.000 156.987,296.000 158.000 M108.229 158.229 C 107.212 159.245,107.455 160.000,108.800 160.000 C 109.867 160.000,110.000 159.867,110.000 158.800 C 110.000 157.455,109.245 157.212,108.229 158.229 M211.887 160.486 C 214.594 163.160,214.777 164.764,212.600 166.745 C 211.452 167.790,211.200 168.303,211.200 169.598 C 211.200 170.874,210.979 171.340,210.045 172.030 C 209.410 172.499,208.661 173.312,208.381 173.835 C 208.101 174.359,207.544 174.891,207.144 175.018 C 206.744 175.145,206.127 175.738,205.774 176.337 C 205.420 176.935,204.606 177.726,203.965 178.094 C 201.522 179.496,202.507 183.200,205.323 183.200 C 207.602 183.200,211.200 186.767,211.200 189.025 C 211.200 191.853,210.793 192.000,202.938 192.000 C 195.481 192.000,195.963 192.118,194.084 189.829 C 193.775 189.452,192.941 189.200,192.000 189.200 C 188.246 189.200,187.222 182.304,190.700 180.451 C 191.405 180.076,191.600 179.623,191.600 178.360 C 191.600 176.479,192.178 175.200,193.028 175.200 C 193.357 175.200,193.982 174.598,194.416 173.863 C 194.850 173.128,195.653 172.322,196.202 172.072 C 197.052 171.684,197.200 171.349,197.200 169.805 C 197.200 168.432,197.409 167.823,198.060 167.296 C 198.533 166.913,199.208 166.294,199.560 165.920 C 200.381 165.048,200.647 164.778,204.107 161.300 C 207.862 157.526,208.792 157.429,211.887 160.486 M105.200 160.800 C 104.760 161.240,104.400 161.856,104.400 162.168 C 104.400 162.481,103.878 162.851,103.241 162.991 C 102.511 163.151,101.994 163.571,101.846 164.123 C 101.470 165.526,101.527 165.600,103.000 165.600 C 104.333 165.600,104.400 165.533,104.400 164.200 C 104.400 162.867,104.467 162.800,105.800 162.800 C 107.133 162.800,107.200 162.733,107.200 161.400 C 107.200 159.773,106.452 159.548,105.200 160.800 M287.600 163.787 C 287.600 164.935,287.721 165.133,288.300 164.932 C 290.171 164.281,290.542 162.400,288.800 162.400 C 287.697 162.400,287.600 162.513,287.600 163.787 M120.901 166.600 C 120.905 167.480,120.987 167.793,121.083 167.295 C 121.179 166.798,121.175 166.078,121.075 165.695 C 120.975 165.313,120.896 165.720,120.901 166.600 M281.527 166.300 C 281.457 166.905,281.175 167.423,280.900 167.450 C 280.625 167.478,280.040 167.523,279.600 167.550 C 277.981 167.651,278.716 168.800,280.400 168.800 C 281.280 168.800,282.000 168.620,282.000 168.400 C 282.000 168.180,282.315 167.997,282.700 167.994 C 283.744 167.985,284.247 167.524,284.546 166.300 C 284.805 165.240,284.758 165.200,283.234 165.200 C 281.807 165.200,281.641 165.307,281.527 166.300 M118.000 169.014 C 118.000 169.883,118.108 169.970,118.753 169.625 C 119.996 168.960,120.134 168.000,118.987 168.000 C 118.197 168.000,118.000 168.202,118.000 169.014 M239.776 170.281 C 239.459 170.598,239.200 171.110,239.200 171.418 C 239.200 171.727,238.642 172.268,237.959 172.621 C 236.862 173.188,236.746 173.410,236.958 174.531 C 237.089 175.229,237.311 176.475,237.451 177.300 C 237.899 179.940,240.395 177.949,240.399 174.949 L 240.400 173.699 245.122 173.530 C 249.162 173.386,250.057 173.230,251.322 172.448 C 253.572 171.058,253.159 170.800,248.687 170.800 C 246.425 170.800,243.624 170.554,242.463 170.252 C 240.647 169.781,240.272 169.785,239.776 170.281 M121.700 170.265 C 120.889 170.592,121.103 173.369,122.029 174.546 C 123.218 176.058,123.458 175.882,123.732 173.300 C 124.018 170.608,123.344 169.601,121.700 170.265 M281.831 172.218 C 281.491 173.576,281.817 174.000,283.200 174.000 C 284.583 174.000,284.909 173.576,284.569 172.218 C 284.372 171.432,284.059 171.200,283.200 171.200 C 282.341 171.200,282.028 171.432,281.831 172.218 M150.173 173.800 C 151.232 175.188,151.267 175.200,154.345 175.200 C 157.331 175.200,157.484 175.246,158.337 176.400 L 159.224 177.600 163.680 177.600 C 168.232 177.600,169.600 178.025,169.600 179.440 C 169.600 179.724,170.095 180.192,170.700 180.480 C 171.305 180.768,171.964 181.375,172.164 181.830 C 172.364 182.284,173.129 183.050,173.864 183.531 C 175.877 184.851,175.940 190.362,173.955 191.569 C 173.271 191.985,172.501 192.747,172.244 193.263 C 171.987 193.778,171.287 194.435,170.688 194.722 C 169.639 195.225,169.600 195.358,169.600 198.422 C 169.600 201.714,169.587 201.745,167.429 203.516 C 166.963 203.898,166.799 204.781,166.798 206.916 L 166.795 209.800 164.669 211.900 C 162.954 213.594,162.283 214.000,161.200 214.000 C 160.117 214.000,159.446 213.594,157.731 211.900 L 155.605 209.800 155.602 205.574 L 155.600 201.347 157.000 200.108 C 158.164 199.077,158.400 198.596,158.400 197.254 C 158.400 195.880,158.608 195.482,159.800 194.573 C 161.186 193.516,161.200 193.474,161.200 190.433 C 161.200 186.570,161.029 186.400,157.140 186.400 C 154.068 186.400,154.031 186.388,152.973 185.000 C 152.066 183.812,151.663 183.600,150.306 183.600 C 148.990 183.600,148.481 183.353,147.426 182.200 C 146.405 181.086,145.843 180.800,144.672 180.800 C 142.363 180.800,141.600 179.751,141.600 176.574 C 141.600 172.592,141.792 172.400,145.767 172.400 L 149.105 172.400 150.173 173.800 M270.548 173.123 C 270.314 173.275,270.000 173.901,269.850 174.514 C 269.698 175.135,269.184 175.778,268.689 175.966 C 267.890 176.269,267.814 176.532,267.937 178.556 L 268.075 180.808 269.337 179.752 C 270.044 179.161,270.709 178.146,270.847 177.448 L 271.095 176.200 271.147 177.492 C 271.241 179.782,274.000 179.854,274.000 177.566 C 274.000 176.669,273.756 176.288,273.000 176.000 C 272.316 175.740,272.000 175.316,272.000 174.659 C 272.000 173.569,271.185 172.707,270.548 173.123 M109.600 174.979 C 109.600 176.327,109.627 176.349,110.758 175.955 C 112.589 175.316,112.725 173.600,110.945 173.600 C 109.678 173.600,109.600 173.680,109.600 174.979 M256.250 174.345 C 254.442 176.342,254.278 180.263,256.000 180.312 L 257.200 180.346 257.200 176.973 C 257.200 173.259,257.209 173.285,256.250 174.345 M123.840 182.700 C 124.409 185.148,126.400 185.537,126.400 183.200 C 126.400 181.636,126.368 181.600,124.992 181.600 C 123.661 181.600,123.599 181.660,123.840 182.700 M234.550 182.850 C 234.688 183.538,234.800 184.258,234.800 184.450 C 234.800 185.359,236.837 184.756,237.226 183.731 C 237.820 182.169,237.430 181.600,235.763 181.600 C 234.338 181.600,234.306 181.632,234.550 182.850 M265.200 188.600 C 265.200 190.634,267.146 190.258,267.787 188.100 C 268.029 187.285,267.919 187.200,266.627 187.200 C 265.263 187.200,265.200 187.262,265.200 188.600 M126.897 190.063 C 126.624 190.336,126.400 190.751,126.400 190.984 C 126.400 191.217,126.040 191.632,125.600 191.907 C 124.306 192.715,124.661 193.090,126.993 193.382 C 129.754 193.727,129.909 193.617,129.630 191.520 C 129.384 189.680,128.012 188.948,126.897 190.063 M232.000 193.800 C 232.000 194.130,232.161 194.400,232.357 194.400 C 232.554 194.400,232.818 194.130,232.945 193.800 C 233.085 193.435,232.945 193.200,232.587 193.200 C 232.264 193.200,232.000 193.470,232.000 193.800 M229.073 198.282 C 228.761 198.787,228.834 204.400,229.153 204.400 C 229.308 204.400,229.607 203.815,229.817 203.100 C 230.084 202.193,230.478 201.761,231.122 201.669 C 232.755 201.438,232.235 198.242,230.538 198.077 C 229.843 198.010,229.184 198.102,229.073 198.282 M123.600 205.624 L 123.600 207.248 125.095 207.124 C 126.484 207.009,126.608 206.892,126.832 205.500 L 127.074 204.000 125.337 204.000 L 123.600 204.000 123.600 205.624 M187.027 213.373 C 191.639 217.985,192.001 218.456,192.010 219.873 C 192.019 221.235,192.301 221.658,194.610 223.784 L 197.200 226.167 197.200 229.339 C 197.200 232.904,196.784 233.565,194.527 233.587 C 193.304 233.599,185.600 226.667,185.600 225.555 C 185.600 225.360,184.767 225.200,183.748 225.200 C 181.210 225.200,178.027 228.125,178.010 230.474 C 178.002 231.715,177.655 232.298,175.809 234.174 L 173.618 236.400 170.940 236.400 C 167.005 236.400,166.800 236.118,166.800 230.702 L 166.800 226.329 169.600 223.627 C 172.031 221.281,172.400 220.739,172.400 219.508 C 172.400 218.315,180.761 208.582,181.927 208.418 C 181.998 208.408,184.293 210.638,187.027 213.373 M121.200 211.292 C 121.200 212.462,121.032 212.684,119.900 213.017 C 117.860 213.618,117.763 215.600,119.773 215.600 C 121.085 215.600,121.200 215.505,121.200 214.425 C 121.200 213.392,121.357 213.236,122.500 213.125 C 123.695 213.010,123.800 212.887,123.800 211.600 C 123.800 210.313,123.695 210.190,122.500 210.075 C 121.267 209.956,121.200 210.018,121.200 211.292 M234.325 213.700 C 234.215 214.843,234.043 215.015,232.900 215.125 C 230.643 215.343,230.923 218.400,233.200 218.400 L 234.800 218.400 234.800 216.800 C 234.800 215.366,234.902 215.200,235.786 215.200 C 236.780 215.200,237.600 214.217,237.600 213.026 C 237.600 211.587,234.467 212.232,234.325 213.700 M116.870 216.926 C 115.716 218.154,115.771 218.400,117.200 218.400 C 118.267 218.400,118.400 218.267,118.400 217.200 C 118.400 215.759,118.029 215.692,116.870 216.926 M134.994 218.010 C 134.356 219.042,135.241 220.800,136.400 220.800 C 137.335 220.800,137.583 220.589,137.798 219.610 C 138.137 218.065,137.814 217.600,136.400 217.600 C 135.766 217.600,135.133 217.784,134.994 218.010 M131.925 219.300 C 131.856 220.015,131.575 220.623,131.300 220.650 C 131.025 220.678,130.350 220.722,129.800 220.750 C 127.988 220.841,128.593 223.600,130.425 223.600 C 131.406 223.600,131.600 223.409,131.822 222.225 C 132.018 221.179,132.356 220.754,133.240 220.446 C 134.935 219.855,134.924 218.000,133.225 218.000 C 132.192 218.000,132.036 218.157,131.925 219.300 M234.800 220.000 C 234.800 221.013,234.956 221.200,235.800 221.200 C 236.983 221.200,237.106 220.401,236.069 219.462 C 235.037 218.529,234.800 218.629,234.800 220.000 M237.600 223.000 C 237.600 223.330,237.892 223.600,238.249 223.600 C 238.780 223.600,238.808 223.491,238.400 223.000 C 238.126 222.670,237.834 222.400,237.751 222.400 C 237.668 222.400,237.600 222.670,237.600 223.000 M220.167 223.341 C 219.626 224.751,220.575 226.193,222.131 226.324 C 222.977 226.396,223.600 226.269,223.600 226.024 C 223.600 225.791,224.230 225.600,225.000 225.600 C 227.441 225.600,227.014 223.777,224.500 223.468 C 223.455 223.339,222.107 223.115,221.505 222.971 C 220.704 222.779,220.345 222.879,220.167 223.341 M138.620 226.909 C 139.079 228.105,140.400 228.472,140.400 227.403 C 140.400 226.603,140.200 226.400,139.413 226.400 C 138.778 226.400,138.495 226.582,138.620 226.909 M227.200 226.771 C 227.200 226.976,227.483 227.426,227.829 227.771 C 228.732 228.675,229.200 228.548,229.200 227.400 C 229.200 226.600,229.000 226.400,228.200 226.400 C 227.650 226.400,227.200 226.567,227.200 226.771 M218.000 230.400 C 218.000 232.056,218.528 232.386,220.167 231.757 C 221.591 231.211,220.966 228.800,219.400 228.800 C 218.033 228.800,218.000 228.838,218.000 230.400 M140.875 232.900 C 141.074 234.969,143.200 235.085,143.200 233.027 C 143.200 231.702,143.113 231.600,141.975 231.600 C 140.833 231.600,140.758 231.689,140.875 232.900 M143.641 237.166 C 143.252 237.413,143.153 237.957,143.316 238.960 C 143.516 240.190,143.439 240.400,142.789 240.400 C 140.494 240.400,141.127 243.418,143.505 243.816 C 144.327 243.953,145.180 244.117,145.400 244.181 C 146.555 244.513,147.186 243.140,146.563 241.651 C 146.230 240.853,145.985 239.660,146.019 239.000 C 146.053 238.340,146.063 237.575,146.041 237.300 C 145.994 236.726,144.470 236.641,143.641 237.166 M215.121 239.877 C 214.941 243.791,214.753 243.621,218.924 243.326 L 222.434 243.079 221.342 241.939 C 220.659 241.226,219.838 240.800,219.147 240.800 C 218.115 240.800,218.036 240.678,217.922 238.900 C 217.806 237.089,217.741 236.994,216.532 236.877 L 215.265 236.754 215.121 239.877 M129.800 240.806 C 125.912 241.057,122.968 241.724,121.478 242.690 C 120.861 243.090,134.384 243.496,135.266 243.104 C 135.773 242.879,135.862 242.542,135.638 241.704 C 135.293 240.414,135.467 240.440,129.800 240.806 M233.922 244.351 C 233.656 246.164,233.987 246.254,240.273 246.081 C 248.486 245.854,247.215 243.882,238.516 243.354 L 234.107 243.086 233.922 244.351 M103.200 244.800 L 102.200 245.800 103.134 245.932 C 104.305 246.098,104.498 245.905,104.332 244.734 L 104.200 243.800 103.200 244.800 M259.489 246.300 C 259.402 246.465,259.347 247.140,259.366 247.800 C 259.410 249.358,262.103 249.676,262.321 248.150 C 262.522 246.743,260.092 245.155,259.489 246.300 M136.304 251.395 L 135.400 252.790 132.180 252.795 C 128.172 252.801,128.000 252.964,128.000 256.741 L 128.000 259.722 124.447 263.261 C 121.304 266.392,120.730 266.800,119.463 266.800 C 118.152 266.800,116.400 265.637,116.400 264.767 C 116.400 263.730,115.006 264.308,113.232 266.082 L 111.200 268.114 111.200 273.777 C 111.200 280.528,111.123 280.400,115.218 280.400 C 118.289 280.400,119.600 280.976,119.600 282.324 C 119.600 283.011,121.061 283.253,124.405 283.119 L 127.400 283.000 127.514 278.443 L 127.627 273.886 129.770 271.743 L 131.913 269.600 136.200 269.600 L 140.487 269.600 142.632 271.746 L 144.778 273.891 144.889 279.846 L 145.000 285.800 153.800 285.897 L 162.600 285.994 163.888 287.497 C 166.220 290.218,166.564 289.422,166.800 280.757 C 167.027 272.396,167.026 272.400,169.403 272.400 C 170.940 272.400,171.293 272.225,172.227 271.000 C 173.185 269.744,173.492 269.600,175.208 269.600 C 176.970 269.600,177.186 269.710,177.947 271.000 C 178.401 271.770,179.031 272.400,179.347 272.400 C 179.663 272.400,180.293 273.030,180.747 273.800 C 181.201 274.570,181.784 275.200,182.042 275.200 C 184.153 275.200,184.274 281.471,182.200 283.308 C 180.703 284.633,180.221 287.261,181.280 288.320 C 181.965 289.005,204.435 289.005,205.120 288.320 C 206.201 287.239,205.700 284.571,204.200 283.427 C 202.093 281.820,202.416 277.600,204.645 277.600 C 204.855 277.600,205.340 277.071,205.722 276.424 C 206.104 275.778,206.734 275.148,207.122 275.025 C 207.510 274.902,208.146 274.261,208.536 273.601 L 209.245 272.400 214.009 272.400 C 219.401 272.400,219.600 272.513,219.600 275.586 C 219.600 276.786,219.788 277.292,220.300 277.473 C 222.906 278.397,223.292 281.679,221.000 283.427 C 219.500 284.571,218.999 287.239,220.080 288.320 C 220.645 288.885,232.800 289.013,232.800 288.455 C 232.800 288.265,233.275 287.635,233.855 287.055 L 234.909 286.000 241.822 286.000 C 250.952 286.000,250.000 286.927,250.000 278.037 C 250.000 268.879,250.575 269.600,243.277 269.600 L 237.513 269.600 235.357 267.443 L 233.200 265.287 233.200 262.464 C 233.200 259.707,233.233 259.615,234.600 258.573 C 236.389 257.208,236.379 257.141,234.019 254.781 L 232.038 252.800 222.281 252.800 C 210.405 252.800,211.200 252.393,211.200 258.467 L 211.200 262.671 209.900 263.884 C 209.185 264.551,208.287 265.480,207.904 265.948 C 207.273 266.720,206.809 266.800,202.958 266.800 L 198.708 266.800 196.560 264.700 L 194.412 262.600 194.406 258.180 C 194.398 252.351,195.291 252.800,183.694 252.800 C 171.539 252.800,172.400 252.392,172.400 258.152 C 172.400 263.310,172.055 264.000,169.478 264.000 C 168.320 264.000,167.757 264.289,166.745 265.400 C 164.544 267.820,163.353 267.491,159.134 263.300 L 155.610 259.800 155.605 256.929 C 155.598 252.911,155.442 252.800,149.811 252.800 L 145.279 252.800 144.453 251.400 L 143.627 250.000 140.417 250.000 L 137.207 250.000 136.304 251.395 M110.654 289.802 C 110.024 290.131,109.163 290.400,108.740 290.400 C 108.096 290.400,108.041 290.529,108.400 291.200 C 108.635 291.640,109.092 292.000,109.414 292.000 C 109.842 292.000,110.000 292.487,110.000 293.813 C 110.000 295.174,110.174 295.689,110.700 295.882 C 111.085 296.024,111.544 296.378,111.720 296.670 C 112.316 297.658,112.800 297.207,112.800 295.664 C 112.800 294.819,113.053 293.285,113.363 292.255 C 114.193 289.498,113.113 288.520,110.654 289.802 M125.207 292.981 C 125.002 293.520,124.287 294.245,123.617 294.591 C 121.924 295.467,122.032 295.752,125.200 298.773 C 127.772 301.226,128.000 301.575,128.000 303.074 C 128.000 304.468,128.203 304.860,129.400 305.773 C 131.417 307.312,131.413 309.492,129.390 311.035 L 127.980 312.110 128.090 318.344 C 128.199 324.503,128.212 324.583,129.175 325.063 C 129.712 325.330,130.393 326.010,130.688 326.575 C 131.143 327.442,131.501 327.600,133.017 327.600 C 134.379 327.600,134.975 327.809,135.504 328.473 C 135.887 328.953,136.875 329.973,137.700 330.739 L 139.200 332.131 139.200 336.176 L 139.200 340.220 137.400 341.914 C 136.410 342.845,135.600 343.757,135.600 343.940 C 135.600 344.122,135.150 344.477,134.600 344.727 L 133.600 345.183 133.600 354.144 L 133.600 363.105 134.987 364.163 L 136.375 365.221 136.487 369.911 L 136.600 374.600 141.708 374.712 C 147.712 374.844,148.482 374.397,145.867 372.299 L 144.400 371.122 144.400 365.423 C 144.400 358.032,144.028 358.400,151.493 358.400 L 157.122 358.400 159.156 360.500 L 161.190 362.600 161.195 365.426 C 161.200 368.106,161.132 368.315,159.900 369.450 C 159.185 370.108,158.330 370.945,158.000 371.310 C 157.670 371.675,156.983 372.352,156.473 372.814 C 155.202 373.966,155.927 374.800,158.202 374.800 C 159.678 374.800,160.047 374.986,160.973 376.200 C 161.937 377.464,162.231 377.600,164.000 377.600 C 165.769 377.600,166.063 377.464,167.027 376.200 C 167.927 375.020,168.341 374.800,169.661 374.800 C 171.027 374.800,171.333 374.979,172.053 376.200 C 173.288 378.293,176.447 378.293,178.117 376.200 C 179.089 374.982,179.462 374.800,180.993 374.800 C 183.454 374.800,184.038 373.134,181.905 372.196 C 181.409 371.978,180.768 371.305,180.480 370.700 C 180.192 370.095,179.724 369.600,179.440 369.600 C 178.230 369.600,177.600 368.170,177.600 365.425 L 177.600 362.713 179.757 360.557 L 181.913 358.400 187.695 358.400 C 195.178 358.400,194.800 358.024,194.800 365.470 C 194.800 371.409,194.675 371.825,192.672 372.537 C 191.061 373.110,192.025 374.589,194.096 374.722 C 195.720 374.826,196.144 375.042,197.044 376.222 C 198.630 378.301,201.914 378.290,203.147 376.200 L 203.973 374.800 209.938 374.800 C 217.541 374.800,218.030 374.475,214.629 371.684 C 213.701 370.923,213.701 359.956,214.629 359.029 C 215.139 358.518,216.294 358.400,220.796 358.400 C 228.007 358.400,227.600 358.626,227.600 354.619 C 227.600 351.200,227.905 350.510,229.700 349.873 C 230.288 349.665,230.400 349.111,230.400 346.413 C 230.400 343.083,230.411 343.057,232.571 341.284 C 233.090 340.859,233.200 339.759,233.200 335.001 L 233.200 329.234 234.600 328.117 C 236.458 326.634,236.770 319.600,234.978 319.600 C 234.682 319.600,233.960 318.970,233.373 318.200 C 232.333 316.837,232.232 316.800,229.526 316.800 C 225.808 316.800,225.200 316.435,225.200 314.203 C 225.200 312.661,225.021 312.291,223.800 311.317 C 221.834 309.749,221.730 306.841,223.601 305.736 C 224.261 305.346,224.904 304.704,225.029 304.309 C 225.154 303.914,225.784 303.319,226.428 302.985 C 227.073 302.652,227.600 302.142,227.600 301.852 C 227.600 299.505,234.758 299.199,236.193 301.485 C 237.243 303.156,237.292 303.146,239.641 300.797 C 241.548 298.890,241.638 298.704,241.522 296.897 L 241.400 295.000 234.915 294.890 L 228.431 294.780 227.805 295.990 L 227.179 297.200 203.002 297.200 L 178.824 297.200 177.937 296.000 L 177.050 294.800 155.942 294.800 L 134.834 294.800 133.717 293.400 L 132.600 292.000 129.090 292.000 C 125.733 292.000,125.564 292.043,125.207 292.981 M253.700 295.655 C 253.425 295.933,253.200 296.394,253.200 296.680 C 253.200 296.966,252.868 297.200,252.462 297.200 C 250.997 297.200,250.219 298.619,250.737 300.348 C 250.992 301.197,251.200 302.907,251.200 304.146 C 251.200 306.897,251.773 307.076,253.323 304.811 C 253.782 304.141,254.000 303.013,254.000 301.311 L 254.000 298.800 255.229 298.800 C 255.904 298.800,256.694 298.575,256.984 298.300 C 257.274 298.025,257.936 297.443,258.455 297.006 L 259.400 296.212 257.800 295.932 C 256.920 295.777,255.750 295.538,255.200 295.401 C 254.609 295.253,253.995 295.357,253.700 295.655 M112.800 303.345 C 112.800 305.716,112.907 306.046,114.049 307.187 C 115.608 308.747,115.529 308.877,115.635 304.594 L 115.723 301.000 114.262 300.876 L 112.800 300.752 112.800 303.345 M161.900 304.931 L 164.000 307.057 164.000 311.200 L 164.000 315.343 161.900 317.469 L 159.800 319.595 155.654 319.598 L 151.508 319.600 149.360 317.500 L 147.212 315.400 147.206 311.235 L 147.200 307.070 149.300 304.948 L 151.400 302.825 155.600 302.815 L 159.800 302.805 161.900 304.931 M199.600 303.600 C 200.040 304.040,200.400 304.541,200.400 304.714 C 200.400 304.886,200.940 305.346,201.600 305.736 L 202.800 306.445 202.800 311.209 C 202.800 316.539,202.662 316.800,199.842 316.800 C 199.045 316.800,198.207 317.073,197.916 317.429 C 196.168 319.559,196.078 319.600,193.157 319.600 L 190.313 319.600 188.157 317.443 L 186.000 315.287 186.000 309.775 C 186.000 302.442,185.638 302.800,193.062 302.800 C 198.267 302.800,198.874 302.874,199.600 303.600 M248.283 309.500 C 247.850 310.291,248.986 315.200,249.602 315.200 C 250.776 315.200,251.200 314.277,251.200 311.720 L 251.200 309.200 249.824 309.200 C 249.067 309.200,248.373 309.335,248.283 309.500 M115.600 317.511 C 115.600 320.762,116.063 321.978,117.621 322.811 C 118.371 323.213,118.400 323.065,118.400 318.814 L 118.400 314.400 117.000 314.400 L 115.600 314.400 115.600 317.511 M245.896 323.500 C 245.641 324.006,246.058 328.000,246.366 328.000 C 247.008 328.000,248.372 325.958,248.622 324.623 C 248.887 323.209,248.880 323.200,247.468 323.200 C 246.687 323.200,245.979 323.335,245.896 323.500 M174.311 331.023 C 175.017 331.517,175.200 332.036,175.200 333.536 C 175.200 335.213,175.336 335.508,176.400 336.136 C 177.060 336.526,177.600 337.185,177.600 337.600 C 177.600 338.015,177.060 338.674,176.400 339.064 C 175.331 339.695,175.200 339.983,175.200 341.700 C 175.200 343.461,175.085 343.695,173.863 344.416 C 173.128 344.850,172.322 345.653,172.072 346.202 C 171.642 347.145,171.440 347.200,168.426 347.200 L 165.235 347.200 161.817 343.851 L 158.400 340.502 158.400 337.611 L 158.400 334.721 160.500 332.577 L 162.600 330.432 168.011 330.416 C 172.280 330.403,173.610 330.531,174.311 331.023 M216.084 331.076 C 216.550 331.498,216.800 332.296,216.800 333.362 C 216.800 334.757,217.022 335.193,218.300 336.300 L 219.800 337.600 218.300 338.900 C 217.043 339.990,216.800 340.454,216.800 341.769 C 216.800 343.316,215.931 344.800,215.024 344.800 C 214.776 344.800,214.254 345.340,213.864 346.000 C 212.796 347.808,206.838 347.865,205.782 346.077 C 205.417 345.460,204.733 344.785,204.261 344.577 C 203.790 344.370,203.168 343.705,202.880 343.100 C 202.592 342.495,202.124 342.000,201.840 342.000 C 199.503 342.000,199.207 334.837,201.485 333.407 C 202.191 332.963,202.776 332.434,202.785 332.231 C 202.863 330.361,214.205 329.375,216.084 331.076 M118.400 333.922 C 118.400 336.507,118.470 336.711,119.800 338.000 L 121.200 339.357 121.200 335.278 L 121.200 331.200 119.800 331.200 L 118.400 331.200 118.400 333.922 M243.011 334.383 C 242.567 335.101,243.279 340.000,243.827 340.000 C 245.307 340.000,246.786 335.144,245.544 334.357 C 244.812 333.893,243.304 333.909,243.011 334.383 M121.200 349.014 C 121.200 352.320,121.349 353.462,121.891 354.314 C 123.228 356.416,123.384 356.143,123.861 350.886 C 124.368 345.300,124.244 344.800,122.351 344.800 L 121.200 344.800 121.200 349.014 M240.094 345.500 C 239.431 346.892,240.499 353.717,241.287 353.120 C 242.398 352.279,243.200 349.802,243.200 347.213 L 243.200 344.800 241.814 344.800 C 240.888 344.800,240.317 345.032,240.094 345.500 M237.600 363.600 C 237.600 365.782,239.358 366.008,239.930 363.900 C 240.377 362.251,240.225 362.000,238.776 362.000 C 237.671 362.000,237.600 362.096,237.600 363.600 M124.067 367.550 C 122.885 368.300,124.391 373.200,125.804 373.200 C 126.301 373.200,126.974 368.205,126.566 367.546 C 126.294 367.106,124.764 367.108,124.067 367.550 M234.625 373.160 C 234.038 374.110,234.883 378.800,235.641 378.800 C 237.689 378.800,238.169 373.075,236.138 372.877 C 235.443 372.810,234.762 372.937,234.625 373.160 M150.267 384.667 C 148.833 386.100,150.328 387.600,153.189 387.600 C 155.003 387.600,156.330 385.664,155.254 384.588 C 154.963 384.297,150.567 384.366,150.267 384.667 M223.100 384.626 C 221.520 386.243,223.310 387.795,226.295 387.396 C 230.472 386.839,232.828 384.803,229.303 384.797 C 228.257 384.795,226.500 384.686,225.400 384.556 C 224.300 384.426,223.265 384.457,223.100 384.626 M137.600 385.124 C 137.600 387.204,143.691 387.951,143.927 385.900 L 144.053 384.800 140.827 384.800 C 139.052 384.800,137.600 384.946,137.600 385.124 " stroke="none" fill="#fcfcfc" fill-rule="evenodd"></path><path id="path1" d="M168.667 7.467 C 168.520 7.613,168.400 9.593,168.400 11.867 L 168.400 16.000 167.000 16.000 L 165.600 16.000 165.600 20.024 L 165.600 24.048 164.100 23.924 C 162.731 23.811,162.589 23.687,162.475 22.500 L 162.349 21.200 159.322 21.200 L 156.295 21.200 156.523 19.800 C 156.745 18.427,156.723 18.400,155.375 18.400 C 154.070 18.400,154.000 18.328,154.000 17.000 C 154.000 15.667,153.933 15.600,152.600 15.600 C 151.267 15.600,151.200 15.533,151.200 14.200 L 151.200 12.800 145.786 12.800 L 140.371 12.800 140.486 16.700 L 140.600 20.600 141.900 20.725 C 143.090 20.840,143.200 20.967,143.200 22.225 C 143.200 23.530,143.272 23.600,144.600 23.600 C 145.933 23.600,146.000 23.667,146.000 25.000 L 146.000 26.400 148.772 26.400 C 151.342 26.400,151.554 26.466,151.672 27.300 C 151.769 27.983,152.129 28.248,153.168 28.400 C 154.635 28.614,155.262 29.448,154.250 29.836 C 153.911 29.966,152.986 29.859,152.195 29.598 C 149.384 28.671,148.699 29.229,148.860 32.318 L 149.000 35.000 146.486 35.000 C 143.904 35.000,143.220 35.390,143.206 36.868 C 143.202 37.278,142.751 37.635,142.041 37.791 C 140.751 38.074,140.414 38.838,140.405 41.500 C 140.400 43.175,140.380 43.200,139.000 43.200 C 137.667 43.200,137.600 43.267,137.600 44.600 C 137.600 45.933,137.533 46.000,136.200 46.000 C 134.872 46.000,134.800 46.070,134.800 47.375 C 134.800 48.633,134.690 48.760,133.500 48.875 L 132.200 49.000 132.200 51.701 L 132.200 54.401 130.700 54.401 C 129.258 54.400,129.200 54.453,129.200 55.775 C 129.200 57.033,129.090 57.160,127.900 57.275 L 126.600 57.400 126.482 60.100 L 126.363 62.800 124.982 62.800 C 123.412 62.800,123.213 63.589,124.034 66.548 C 124.562 68.450,124.213 68.849,122.290 68.537 C 120.913 68.314,120.800 68.193,120.800 66.948 C 120.800 65.674,120.723 65.600,119.400 65.600 L 118.000 65.600 118.000 62.800 L 118.000 60.000 116.600 60.000 C 115.267 60.000,115.200 59.933,115.200 58.600 L 115.200 57.200 109.800 57.200 L 104.400 57.200 104.400 61.200 L 104.400 65.200 105.800 65.200 C 107.133 65.200,107.200 65.267,107.200 66.600 C 107.200 67.933,107.267 68.000,108.600 68.000 C 109.933 68.000,110.000 68.067,110.000 69.400 C 110.000 70.733,110.067 70.800,111.400 70.800 C 112.689 70.800,112.800 70.895,112.800 72.000 C 112.800 73.105,112.911 73.200,114.200 73.200 L 115.600 73.200 115.600 75.800 L 115.600 78.400 117.000 78.400 C 118.964 78.400,119.053 79.886,117.100 80.075 C 116.022 80.179,115.779 80.385,115.675 81.283 C 115.551 82.362,115.542 82.365,113.003 82.127 L 110.455 81.889 110.327 83.445 L 110.200 85.000 103.947 84.858 C 95.518 84.667,96.000 84.417,96.000 88.984 C 96.000 93.037,96.094 93.200,98.419 93.200 C 99.162 93.200,99.724 93.484,100.000 94.000 C 100.235 94.440,100.677 94.800,100.981 94.800 C 101.285 94.800,101.608 95.025,101.699 95.300 C 101.820 95.663,103.519 95.835,107.886 95.928 L 113.907 96.056 113.801 94.817 C 113.709 93.725,114.969 92.036,115.489 92.556 C 115.565 92.631,115.618 102.437,115.607 114.347 L 115.587 136.000 116.932 136.000 C 118.646 136.000,119.968 137.274,119.206 138.192 C 118.565 138.965,117.856 138.959,116.183 138.165 C 115.260 137.727,114.029 137.572,112.221 137.665 L 109.598 137.800 109.599 136.300 C 109.600 134.852,109.551 134.800,108.200 134.800 C 106.864 134.800,106.800 134.735,106.800 133.386 L 106.800 131.971 102.900 132.086 L 99.000 132.200 98.899 137.000 C 98.779 142.772,98.839 142.894,101.968 143.120 L 104.400 143.296 104.400 144.648 L 104.400 146.000 107.200 146.000 L 110.000 146.000 110.000 147.440 L 110.000 148.881 111.900 148.639 C 115.714 148.154,115.802 148.160,115.767 148.900 C 115.748 149.285,115.703 150.790,115.667 152.244 L 115.600 154.888 114.200 154.724 C 112.850 154.566,112.800 154.608,112.800 155.880 C 112.800 157.122,112.717 157.200,111.400 157.200 C 110.067 157.200,110.000 157.267,110.000 158.600 C 110.000 159.933,109.933 160.000,108.600 160.000 C 107.267 160.000,107.200 160.067,107.200 161.400 C 107.200 162.733,107.133 162.800,105.800 162.800 C 104.467 162.800,104.400 162.867,104.400 164.200 C 104.400 165.543,104.341 165.600,102.947 165.600 C 100.053 165.600,98.800 167.662,98.800 172.428 L 98.800 176.400 104.200 176.400 L 109.600 176.400 109.600 175.000 L 109.600 173.600 112.400 173.600 L 115.200 173.600 115.200 172.200 C 115.200 170.867,115.267 170.800,116.600 170.800 C 117.933 170.800,118.000 170.733,118.000 169.400 C 118.000 168.071,118.070 168.000,119.376 168.000 C 120.671 168.000,120.761 167.912,120.909 166.500 C 121.003 165.598,121.092 166.087,121.133 167.727 C 121.192 170.124,121.285 170.428,121.900 170.236 C 123.587 169.711,123.807 170.455,123.659 176.185 L 123.519 181.600 124.960 181.600 L 126.400 181.600 126.400 186.080 C 126.400 189.564,126.507 190.453,126.880 190.080 C 128.199 188.761,129.464 189.524,129.656 191.756 L 129.790 193.313 120.328 193.356 C 109.402 193.407,110.239 193.058,110.060 197.633 L 109.920 201.200 111.335 201.200 C 112.638 201.200,112.759 201.302,112.875 202.500 L 113.000 203.800 120.036 203.909 L 127.071 204.018 126.831 205.509 C 126.607 206.898,126.486 207.009,125.066 207.126 L 123.541 207.252 123.670 210.126 L 123.800 213.000 122.500 213.125 C 121.357 213.236,121.200 213.392,121.200 214.425 C 121.200 215.501,121.082 215.600,119.800 215.600 C 118.467 215.600,118.400 215.667,118.400 217.000 C 118.400 218.333,118.333 218.400,117.000 218.400 C 115.672 218.400,115.600 218.470,115.600 219.775 C 115.600 221.033,115.490 221.160,114.300 221.275 L 113.000 221.400 113.000 225.200 L 113.000 229.000 114.300 229.125 C 115.490 229.240,115.600 229.367,115.600 230.625 L 115.600 232.000 118.967 232.000 C 123.107 232.000,123.600 231.828,123.600 230.383 C 123.600 229.398,123.769 229.234,124.900 229.125 C 126.038 229.016,126.215 228.840,126.324 227.724 C 126.431 226.612,126.612 226.431,127.724 226.324 L 129.000 226.200 128.912 223.500 C 128.828 220.884,128.855 220.798,129.812 220.750 C 130.356 220.722,131.025 220.678,131.300 220.650 C 131.575 220.623,131.855 220.039,131.921 219.353 C 132.041 218.128,132.088 218.101,134.672 217.837 C 137.956 217.500,137.800 217.287,137.800 222.134 L 137.800 226.200 139.100 226.325 L 140.400 226.451 140.400 229.145 L 140.400 231.839 141.800 231.676 L 143.200 231.512 143.200 234.331 L 143.200 237.150 144.600 236.923 C 146.098 236.679,146.136 236.735,146.019 239.000 C 145.985 239.660,146.230 240.853,146.563 241.651 C 147.186 243.140,146.555 244.513,145.400 244.181 C 145.180 244.117,144.327 243.953,143.505 243.816 C 141.743 243.521,140.944 242.425,141.600 241.200 C 142.012 240.429,141.904 240.400,138.642 240.400 L 135.256 240.400 135.606 241.621 C 136.088 243.300,136.860 243.217,119.775 243.314 L 104.600 243.400 104.475 244.700 C 104.360 245.891,104.234 246.000,102.971 246.000 L 101.593 246.000 101.696 266.700 L 101.800 287.400 103.100 287.525 C 104.231 287.634,104.400 287.798,104.400 288.783 C 104.400 290.496,108.152 291.108,110.654 289.802 C 113.113 288.520,114.193 289.498,113.363 292.255 C 113.053 293.285,112.800 295.618,112.800 297.439 L 112.800 300.752 114.239 300.876 L 115.679 301.000 115.622 307.700 L 115.566 314.400 116.983 314.400 L 118.400 314.400 118.400 322.800 L 118.400 331.200 119.800 331.200 L 121.200 331.200 121.200 338.000 L 121.200 344.800 122.351 344.800 C 124.195 344.800,124.430 345.433,123.994 349.230 C 123.780 351.083,123.605 355.951,123.603 360.046 L 123.600 367.491 125.096 367.446 L 126.592 367.400 126.456 374.031 C 126.310 381.116,126.526 382.000,128.403 382.000 C 128.953 382.000,129.182 382.343,129.275 383.300 L 129.400 384.600 136.729 384.709 L 144.058 384.818 143.929 386.109 L 143.800 387.400 147.400 387.504 C 149.539 387.565,150.784 387.467,150.468 387.260 C 148.769 386.151,150.128 384.600,152.799 384.600 L 155.397 384.600 155.268 386.100 L 155.139 387.600 189.469 387.594 C 208.351 387.591,223.561 387.436,223.268 387.250 C 222.966 387.059,222.793 386.414,222.868 385.757 L 223.000 384.600 228.800 384.600 L 234.600 384.600 234.600 378.800 L 234.600 373.000 236.100 373.000 L 237.601 373.000 237.600 367.456 L 237.600 361.912 239.000 362.076 L 240.400 362.239 240.366 356.420 C 240.348 353.219,240.204 349.568,240.046 348.308 C 239.689 345.450,240.027 344.800,241.869 344.800 L 243.297 344.800 243.149 339.500 L 243.000 334.200 244.527 334.248 L 246.053 334.296 245.961 328.848 L 245.869 323.400 247.376 323.273 L 248.884 323.147 248.680 317.073 C 248.568 313.733,248.414 310.640,248.338 310.200 C 248.223 309.534,248.451 309.379,249.700 309.276 L 251.200 309.152 251.200 305.522 C 251.200 303.526,250.992 301.197,250.737 300.348 C 250.232 298.662,250.989 297.200,252.367 297.200 C 252.721 297.200,253.188 296.795,253.405 296.300 C 253.714 295.596,254.061 295.432,255.000 295.546 C 258.212 295.936,261.654 295.759,262.017 295.187 C 262.233 294.844,262.390 285.112,262.394 271.800 L 262.401 249.000 260.900 249.000 C 259.424 249.000,259.400 248.976,259.431 247.476 L 259.462 245.952 246.977 246.028 C 233.260 246.112,233.656 246.162,233.918 244.378 L 234.102 243.121 224.551 243.252 C 217.177 243.353,215.009 243.271,215.040 242.892 C 215.062 242.621,215.107 241.120,215.140 239.556 L 215.200 236.712 216.600 236.876 L 218.000 237.039 218.000 232.920 L 218.000 228.800 219.452 228.800 L 220.904 228.800 220.625 226.900 C 220.075 223.159,220.100 222.992,221.200 223.078 C 225.941 223.450,226.400 223.624,226.400 225.051 C 226.400 226.321,226.480 226.400,227.775 226.400 C 229.033 226.400,229.160 226.510,229.275 227.700 L 229.400 229.000 234.000 229.116 C 240.311 229.275,240.400 229.243,240.400 226.825 C 240.400 224.141,240.124 223.600,238.757 223.600 C 237.738 223.600,237.600 223.457,237.600 222.400 C 237.600 221.295,237.489 221.200,236.200 221.200 C 234.867 221.200,234.800 221.133,234.800 219.800 C 234.800 218.433,234.762 218.400,233.200 218.400 C 230.923 218.400,230.643 215.343,232.900 215.125 C 234.039 215.016,234.215 214.841,234.324 213.717 L 234.448 212.434 237.324 212.317 L 240.200 212.200 240.325 210.900 C 240.440 209.710,240.567 209.600,241.825 209.600 C 243.125 209.600,243.200 209.525,243.200 208.225 C 243.200 206.967,243.310 206.840,244.500 206.725 L 245.800 206.600 245.800 202.800 L 245.800 199.000 239.000 199.000 L 232.200 199.000 232.077 200.275 C 231.984 201.235,231.736 201.581,231.077 201.675 C 230.482 201.760,230.077 202.219,229.817 203.100 C 229.182 205.258,228.843 204.575,228.924 201.300 L 229.000 198.200 230.500 198.200 L 232.001 198.200 232.000 195.700 C 232.000 193.309,232.043 193.200,232.986 193.200 C 234.604 193.200,234.911 192.021,234.727 186.505 L 234.561 181.531 236.119 181.680 L 237.677 181.828 237.463 178.814 C 237.345 177.156,237.129 175.229,236.983 174.531 C 236.747 173.400,236.852 173.193,237.959 172.621 C 238.642 172.268,239.200 171.727,239.200 171.418 C 239.200 170.043,240.233 169.674,242.463 170.252 C 243.817 170.604,246.839 170.800,250.887 170.800 L 257.200 170.800 257.200 175.625 C 257.200 179.981,257.132 180.443,256.500 180.379 C 254.354 180.161,254.317 180.214,254.618 183.100 C 254.942 186.216,255.287 187.047,256.400 187.400 C 257.078 187.615,257.200 188.005,257.200 189.947 C 257.200 192.914,257.539 193.200,261.047 193.200 C 265.199 193.200,265.200 193.199,265.200 189.957 L 265.200 187.200 266.619 187.200 L 268.038 187.200 267.976 181.725 C 267.917 176.518,267.955 176.234,268.745 175.942 C 269.202 175.773,269.699 175.132,269.850 174.517 C 270.347 172.488,272.000 172.596,272.000 174.659 C 272.000 175.325,272.318 175.741,273.039 176.015 C 274.048 176.398,274.069 176.479,273.794 178.853 C 273.488 181.484,273.755 181.982,275.475 181.994 C 276.167 181.999,276.375 182.270,276.475 183.300 C 276.585 184.443,276.757 184.615,277.900 184.725 C 278.971 184.829,279.200 185.020,279.200 185.811 C 279.200 187.165,280.293 187.600,283.694 187.600 C 287.564 187.600,287.600 187.551,287.600 182.294 C 287.600 177.494,287.263 176.400,285.786 176.400 C 284.940 176.400,284.800 176.215,284.800 175.100 C 284.801 173.864,284.726 173.800,283.300 173.800 L 281.800 173.800 281.940 171.300 L 282.081 168.800 280.440 168.800 C 278.724 168.800,277.953 167.653,279.600 167.550 C 280.040 167.523,280.625 167.478,280.900 167.450 C 281.175 167.423,281.457 166.905,281.527 166.300 C 281.652 165.210,281.680 165.200,284.627 165.200 L 287.600 165.200 287.600 163.818 L 287.600 162.437 290.300 162.318 L 293.000 162.200 293.125 160.900 C 293.240 159.710,293.367 159.600,294.625 159.600 C 295.930 159.600,296.000 159.528,296.000 158.200 C 296.000 156.867,296.067 156.800,297.400 156.800 C 298.733 156.800,298.800 156.733,298.800 155.400 C 298.800 154.111,298.895 154.000,300.000 154.000 C 301.098 154.000,301.200 153.884,301.200 152.642 C 301.200 151.346,301.274 151.277,302.830 151.129 C 304.843 150.937,304.666 150.054,304.414 159.000 L 304.200 166.600 302.900 166.470 C 300.811 166.261,301.421 171.234,303.629 172.416 C 304.117 172.676,304.394 173.360,304.477 174.502 L 304.600 176.200 309.800 176.200 L 315.000 176.200 315.105 162.562 L 315.210 148.924 321.059 148.671 C 327.599 148.389,327.600 148.389,327.600 150.024 L 327.600 151.200 332.213 151.200 C 337.608 151.200,337.363 151.418,337.385 146.600 L 337.400 143.400 336.100 143.275 C 335.143 143.182,334.800 142.953,334.800 142.403 C 334.800 140.839,333.747 140.400,329.997 140.400 L 326.451 140.400 326.325 139.100 L 326.200 137.800 322.436 137.684 C 319.925 137.607,318.108 137.760,316.978 138.146 C 314.530 138.980,313.656 137.671,314.874 134.996 C 315.277 134.112,315.550 133.982,316.674 134.133 L 318.000 134.312 318.000 128.523 L 318.000 122.735 319.440 122.929 L 320.880 123.123 320.712 118.261 C 320.619 115.588,320.466 113.130,320.372 112.800 C 320.225 112.288,320.872 112.214,324.800 112.297 C 327.330 112.350,329.649 112.395,329.952 112.397 C 330.360 112.399,330.445 112.767,330.277 113.800 L 330.050 115.200 334.776 115.200 C 340.535 115.200,340.475 115.249,340.317 110.739 L 340.200 107.400 338.900 107.275 C 337.946 107.183,337.600 106.952,337.600 106.407 C 337.600 104.514,337.336 104.400,332.957 104.400 L 328.800 104.400 328.800 103.000 L 328.800 101.600 326.176 101.600 C 324.733 101.600,323.645 101.450,323.759 101.267 C 323.872 101.083,324.513 101.014,325.182 101.112 L 326.400 101.291 326.400 98.645 L 326.400 96.000 327.827 96.000 L 329.254 96.000 329.127 92.900 L 329.000 89.800 330.476 89.677 C 331.743 89.572,331.969 89.403,332.076 88.477 C 332.186 87.523,332.348 87.414,333.500 87.526 C 334.747 87.646,334.800 87.593,334.800 86.226 C 334.800 84.991,334.928 84.800,335.751 84.800 C 337.332 84.800,337.642 83.980,337.516 80.140 L 337.400 76.600 332.456 76.487 C 327.170 76.367,326.400 76.588,326.400 78.224 C 326.400 78.976,326.156 79.173,325.100 79.275 C 323.957 79.385,323.785 79.557,323.675 80.700 C 323.564 81.843,323.408 82.000,322.375 82.000 C 321.303 82.000,321.200 82.121,321.200 83.375 C 321.200 84.633,321.090 84.760,319.900 84.875 L 318.600 85.000 318.482 87.900 L 318.365 90.800 316.982 90.800 C 315.718 90.800,315.600 90.901,315.600 91.982 C 315.600 93.023,315.428 93.196,314.156 93.435 C 312.456 93.754,311.881 93.175,312.232 91.500 C 312.450 90.465,312.381 90.400,311.057 90.400 C 309.763 90.400,309.641 90.296,309.525 89.100 L 309.400 87.800 306.700 87.682 L 304.000 87.563 304.000 86.130 L 304.000 84.696 302.100 84.975 C 298.348 85.527,298.188 85.503,298.317 84.400 C 298.382 83.850,298.444 82.365,298.456 81.100 L 298.477 78.800 299.838 78.800 L 301.200 78.800 301.200 76.200 L 301.200 73.600 302.600 73.600 L 304.000 73.600 304.000 70.800 L 304.000 68.000 305.400 68.000 L 306.800 68.000 306.800 64.000 L 306.800 60.000 305.400 60.000 C 304.063 60.000,304.000 59.936,304.000 58.581 L 304.000 57.162 301.500 57.281 C 299.000 57.400,299.000 57.400,298.875 58.700 C 298.760 59.890,298.633 60.000,297.375 60.000 C 296.075 60.000,296.000 60.075,296.000 61.375 C 296.000 62.633,295.890 62.760,294.700 62.875 L 293.400 63.000 293.282 65.700 L 293.163 68.400 291.741 68.400 L 290.318 68.400 290.459 70.989 C 290.546 72.579,290.446 73.544,290.200 73.489 C 289.980 73.440,289.794 72.950,289.788 72.400 C 289.778 71.613,289.543 71.373,288.688 71.273 C 287.740 71.163,287.600 70.970,287.600 69.773 C 287.600 68.470,287.528 68.400,286.200 68.400 C 284.867 68.400,284.800 68.333,284.800 67.000 C 284.800 65.632,284.763 65.600,283.191 65.600 L 281.582 65.600 281.691 62.900 L 281.800 60.200 280.505 60.075 C 279.427 59.971,279.155 59.736,278.880 58.675 L 278.551 57.400 274.876 57.285 L 271.200 57.170 271.200 62.585 L 271.200 68.000 272.382 68.000 C 273.562 68.000,273.564 68.003,273.682 70.700 L 273.800 73.400 275.100 73.525 C 276.243 73.636,276.400 73.792,276.400 74.825 C 276.400 75.921,276.504 76.000,277.933 76.000 C 279.859 76.000,279.977 76.129,279.595 77.820 C 279.424 78.579,279.423 79.816,279.593 80.569 C 279.989 82.327,279.502 82.831,277.862 82.360 C 277.171 82.162,275.414 82.000,273.957 82.000 L 271.309 82.000 271.354 83.477 C 271.397 84.867,271.311 84.976,269.891 85.319 C 267.939 85.791,267.072 85.189,267.622 83.743 C 268.137 82.387,268.107 70.148,267.586 69.174 C 267.348 68.730,266.751 68.400,266.186 68.400 C 265.324 68.400,265.200 68.222,265.200 66.986 L 265.200 65.571 261.300 65.686 L 257.400 65.800 257.187 74.000 C 257.071 78.510,256.936 81.525,256.887 80.700 C 256.804 79.269,256.736 79.200,255.400 79.200 C 254.067 79.200,254.000 79.133,254.000 77.800 C 254.000 76.467,253.933 76.400,252.600 76.400 C 251.267 76.400,251.200 76.333,251.200 75.000 C 251.200 73.718,251.101 73.600,250.027 73.600 C 249.044 73.600,248.833 73.421,248.727 72.500 L 248.600 71.400 244.833 71.284 C 240.725 71.158,240.441 71.293,240.375 73.400 C 240.354 74.060,240.246 74.375,240.135 74.100 C 240.024 73.825,239.408 73.600,238.767 73.600 L 237.600 73.600 237.600 71.000 L 237.600 68.400 236.200 68.400 L 234.800 68.400 234.800 65.600 L 234.800 62.800 233.400 62.800 L 232.000 62.800 232.000 60.424 L 232.000 58.048 230.500 57.924 C 228.560 57.764,228.407 56.657,230.300 56.475 C 231.438 56.365,231.600 56.205,231.600 55.192 L 231.600 54.035 234.500 53.918 L 237.400 53.800 237.525 52.500 C 237.640 51.310,237.767 51.200,239.025 51.200 C 240.279 51.200,240.400 51.097,240.400 50.025 C 240.400 48.992,240.557 48.836,241.700 48.725 C 242.838 48.616,243.015 48.440,243.124 47.324 C 243.231 46.212,243.412 46.031,244.524 45.924 C 245.635 45.816,245.816 45.635,245.924 44.524 C 246.031 43.412,246.212 43.231,247.324 43.124 C 248.430 43.016,248.616 42.833,248.722 41.746 C 248.822 40.717,249.056 40.449,250.022 40.256 L 251.200 40.020 251.200 36.010 L 251.200 32.000 250.025 32.000 C 248.992 32.000,248.836 31.843,248.725 30.700 L 248.600 29.400 244.800 29.400 L 241.000 29.400 240.617 30.700 C 240.307 31.755,240.029 32.000,239.144 32.000 C 237.765 32.000,237.454 32.893,237.818 35.804 L 238.092 38.000 236.671 38.000 C 235.361 38.000,235.241 38.101,235.125 39.300 C 235.021 40.383,234.817 40.621,233.900 40.727 C 232.933 40.838,232.800 41.023,232.800 42.256 C 232.800 44.069,231.514 44.020,231.201 42.195 C 231.045 41.286,230.757 40.972,229.994 40.883 L 228.992 40.765 229.141 32.173 C 229.334 21.049,229.124 19.253,227.565 18.664 C 226.908 18.416,226.400 17.928,226.400 17.545 C 226.400 15.763,226.062 15.600,222.381 15.600 C 220.437 15.600,218.736 15.780,218.600 16.000 C 218.464 16.220,218.367 22.533,218.384 30.028 C 218.404 39.182,218.281 43.574,218.007 43.405 C 217.783 43.266,217.600 42.533,217.600 41.776 C 217.600 40.520,217.497 40.400,216.425 40.400 C 215.392 40.400,215.236 40.243,215.125 39.100 L 215.000 37.800 212.324 37.682 L 209.648 37.565 209.524 36.282 L 209.400 35.000 206.700 34.882 L 204.000 34.763 204.000 33.382 L 204.000 32.000 201.450 32.000 C 198.954 32.000,198.895 31.975,198.667 30.836 C 198.364 29.319,197.244 29.074,191.455 29.258 L 187.000 29.400 186.868 28.243 C 186.793 27.586,186.966 26.941,187.268 26.750 C 188.329 26.077,179.414 26.355,178.047 27.037 C 175.895 28.110,175.008 26.618,176.039 23.660 C 176.416 22.580,176.672 22.400,177.839 22.400 L 179.200 22.400 179.200 15.433 C 179.200 11.601,179.091 8.181,178.957 7.833 C 178.705 7.176,169.292 6.841,168.667 7.467 M216.430 21.764 C 216.172 22.075,216.107 22.419,216.285 22.529 C 216.714 22.794,218.062 21.795,217.727 21.460 C 217.325 21.058,216.941 21.148,216.430 21.764 M185.983 37.169 C 186.977 39.025,187.478 39.200,191.796 39.200 C 196.237 39.200,197.200 39.382,197.200 40.220 C 197.200 41.129,198.896 42.000,200.667 42.000 C 202.116 42.000,202.431 42.156,202.880 43.100 C 203.168 43.705,203.790 44.370,204.261 44.577 C 204.733 44.785,205.411 45.449,205.768 46.053 C 206.125 46.657,206.773 47.264,207.208 47.403 C 207.644 47.541,208.000 47.810,208.000 48.001 C 208.000 48.192,210.609 50.925,213.797 54.074 C 219.424 59.632,219.595 59.849,219.597 61.477 C 219.600 62.905,219.774 63.257,220.766 63.843 C 221.407 64.222,222.123 64.952,222.357 65.466 C 222.591 65.980,222.933 66.400,223.116 66.400 C 224.147 66.400,225.200 68.120,225.200 69.805 C 225.200 71.372,225.340 71.652,226.400 72.200 C 227.569 72.805,227.600 72.897,227.600 75.778 C 227.600 79.358,227.771 79.861,229.248 80.625 C 230.370 81.205,230.400 81.302,230.400 84.393 C 230.400 87.540,230.412 87.575,231.800 88.683 L 233.200 89.800 233.200 94.280 L 233.200 98.759 234.600 99.827 L 236.000 100.895 236.000 111.167 C 236.000 122.606,236.049 122.400,233.307 122.400 C 231.749 122.400,231.489 122.258,230.747 121.000 C 229.986 119.710,229.770 119.600,228.008 119.600 C 226.292 119.600,225.985 119.744,225.027 121.000 C 224.164 122.132,223.690 122.400,222.553 122.400 C 219.483 122.400,218.805 121.102,221.000 119.427 L 222.400 118.359 222.394 114.080 L 222.388 109.800 220.240 107.700 L 218.092 105.600 215.378 105.600 C 211.264 105.600,211.200 105.707,211.200 112.588 L 211.200 118.253 209.800 119.492 C 208.635 120.524,208.400 121.003,208.400 122.350 C 208.400 123.336,208.154 124.170,207.771 124.484 C 205.867 126.047,205.600 126.466,205.594 127.900 C 205.587 129.632,205.401 129.963,203.900 130.918 C 202.989 131.498,202.800 131.904,202.800 133.278 C 202.800 136.285,203.110 136.400,211.242 136.400 L 218.359 136.400 219.427 135.000 C 220.334 133.812,220.737 133.600,222.094 133.600 C 223.410 133.600,223.919 133.353,224.974 132.200 C 226.005 131.075,226.553 130.800,227.763 130.800 C 228.981 130.800,229.505 130.533,230.508 129.400 C 231.922 127.803,235.252 127.316,235.757 128.633 C 236.340 130.153,236.017 140.754,235.371 141.284 C 233.078 143.165,233.200 142.657,233.200 150.353 L 233.200 157.505 231.800 158.573 C 230.410 159.633,230.400 159.663,230.400 162.773 C 230.400 165.882,230.390 165.913,229.000 166.973 L 227.600 168.041 227.600 172.545 L 227.600 177.050 226.400 177.937 C 225.241 178.793,225.200 178.934,225.200 182.008 L 225.200 185.193 223.805 186.096 C 222.534 186.920,222.409 187.170,222.405 188.913 C 222.400 190.674,222.288 190.893,221.000 191.653 L 219.600 192.479 219.600 195.640 C 219.600 198.912,219.585 198.947,217.429 200.716 C 216.960 201.100,216.800 201.985,216.800 204.187 C 216.800 207.191,216.741 207.333,214.845 208.896 C 214.252 209.385,214.000 210.051,214.000 211.132 C 214.000 212.382,213.737 212.911,212.600 213.945 C 211.244 215.179,211.200 215.312,211.200 218.136 C 211.200 220.967,211.159 221.089,209.800 222.292 C 208.702 223.264,208.400 223.834,208.400 224.933 C 208.400 226.620,208.065 227.600,207.489 227.600 C 206.171 227.600,205.600 228.935,205.600 232.015 C 205.600 235.076,205.587 235.115,204.200 236.173 C 202.987 237.098,202.800 237.468,202.800 238.940 C 202.800 241.747,204.023 241.600,180.701 241.600 L 159.562 241.600 157.581 239.619 C 155.867 237.905,155.600 237.422,155.600 236.039 C 155.600 234.682,155.388 234.279,154.200 233.373 C 152.980 232.442,152.800 232.082,152.800 230.573 C 152.800 229.063,152.620 228.703,151.400 227.773 C 150.186 226.847,150.000 226.479,150.000 225.000 C 150.000 223.521,149.814 223.153,148.600 222.227 C 147.216 221.171,147.200 221.125,147.200 218.109 C 147.200 215.174,147.152 215.018,145.936 214.003 C 144.704 212.974,144.675 212.874,144.761 209.923 C 144.851 206.847,144.307 205.769,142.332 205.111 C 142.057 205.019,141.928 203.373,141.971 200.503 C 142.041 195.756,142.108 195.954,139.829 194.084 C 139.360 193.700,139.200 192.815,139.200 190.613 C 139.200 187.567,138.915 186.918,137.169 185.983 C 136.514 185.633,136.398 185.113,136.387 182.486 C 136.374 179.277,136.065 178.485,134.500 177.651 C 133.648 177.197,133.600 176.932,133.600 172.625 L 133.600 168.078 132.183 166.939 L 130.766 165.800 130.778 158.517 L 130.791 151.234 129.395 150.169 L 128.000 149.105 128.000 137.985 C 128.000 125.786,128.006 125.830,126.352 124.975 L 125.200 124.379 125.200 116.804 C 125.200 109.740,125.252 109.200,125.969 108.817 C 128.019 107.720,128.000 107.830,128.000 96.971 C 128.000 91.377,128.154 86.800,128.342 86.800 C 129.790 86.800,130.800 84.784,130.800 81.893 C 130.800 79.029,130.839 78.913,132.200 77.708 C 133.564 76.500,133.600 76.392,133.600 73.482 C 133.600 70.538,133.620 70.479,135.000 69.427 C 136.197 68.514,136.400 68.122,136.400 66.728 C 136.400 65.229,136.628 64.880,139.200 62.427 C 141.687 60.056,142.000 59.590,142.000 58.269 C 142.000 56.859,142.529 56.248,152.100 46.626 L 162.200 36.471 173.886 36.435 C 185.024 36.402,185.591 36.436,185.983 37.169 M178.262 50.731 C 177.733 51.316,177.600 52.320,177.600 55.711 L 177.600 59.959 179.000 61.027 L 180.400 62.095 180.400 72.032 C 180.400 84.268,180.065 83.600,186.200 83.600 C 190.240 83.600,192.000 82.991,192.000 81.595 C 192.000 81.389,192.527 80.948,193.172 80.615 C 193.816 80.281,194.459 79.645,194.600 79.200 C 194.741 78.755,195.371 78.125,196.000 77.800 C 196.629 77.475,197.259 76.845,197.400 76.400 C 197.541 75.955,198.184 75.319,198.828 74.985 C 199.859 74.452,200.000 74.164,200.000 72.590 C 200.000 71.300,200.223 70.604,200.800 70.100 C 201.925 69.116,202.923 68.147,203.451 67.529 C 203.699 67.238,204.284 66.687,204.751 66.304 C 206.348 64.995,205.923 62.862,203.588 60.465 C 200.596 57.393,199.466 57.502,195.946 61.200 C 191.633 65.732,189.200 65.278,189.200 59.940 C 189.200 56.868,189.188 56.831,187.800 55.773 C 186.589 54.849,186.400 54.476,186.400 53.015 C 186.400 50.529,185.615 50.000,181.930 50.000 C 179.526 50.000,178.791 50.146,178.262 50.731 M242.220 79.200 C 243.076 79.200,243.200 79.380,243.200 80.618 C 243.200 82.019,243.217 82.033,244.582 81.777 L 245.963 81.518 246.082 84.459 L 246.200 87.400 247.500 87.525 C 248.690 87.640,248.800 87.767,248.800 89.025 C 248.800 90.330,248.872 90.400,250.200 90.400 C 251.298 90.400,251.600 90.560,251.600 91.143 C 251.600 91.693,252.042 91.982,253.300 92.253 C 255.970 92.829,255.736 96.151,253.000 96.507 C 252.047 96.631,251.774 96.882,251.673 97.731 C 251.564 98.657,251.364 98.800,250.173 98.800 C 248.872 98.800,248.800 98.873,248.800 100.192 C 248.800 101.332,248.624 101.629,247.832 101.828 C 246.177 102.243,245.386 101.887,245.522 100.788 C 245.590 100.244,245.744 98.405,245.865 96.700 L 246.085 93.600 244.542 93.600 L 243.000 93.600 243.000 87.900 L 243.000 82.200 241.700 82.326 L 240.400 82.451 240.412 80.126 C 240.421 78.351,240.521 77.966,240.832 78.500 C 241.056 78.885,241.681 79.200,242.220 79.200 M142.400 89.600 C 140.926 91.074,141.432 97.200,143.028 97.200 C 143.357 97.200,143.982 97.802,144.416 98.537 C 144.850 99.272,145.638 100.071,146.168 100.312 C 146.697 100.554,147.249 101.124,147.394 101.580 C 147.538 102.036,148.171 102.675,148.800 103.000 C 149.429 103.325,150.046 103.914,150.171 104.309 C 150.296 104.704,150.939 105.346,151.599 105.736 C 152.641 106.351,152.800 106.676,152.800 108.187 C 152.800 109.603,153.009 110.105,153.918 110.869 C 156.106 112.711,155.641 114.000,152.787 114.000 C 151.858 114.000,151.024 114.253,150.716 114.629 C 148.965 116.762,148.882 116.800,145.900 116.806 C 142.718 116.813,142.503 116.895,141.482 118.500 C 140.871 119.459,140.526 119.600,138.791 119.600 C 137.696 119.600,136.800 119.780,136.800 120.000 C 136.800 120.221,136.060 121.119,135.156 121.997 C 133.423 123.678,133.306 124.694,134.802 125.085 C 135.241 125.199,135.600 125.426,135.600 125.588 C 135.600 128.541,145.948 129.208,147.425 126.352 C 148.005 125.230,148.103 125.200,151.182 125.200 C 154.448 125.200,155.069 124.939,156.017 123.169 C 156.327 122.588,156.861 122.400,158.197 122.400 C 159.739 122.400,160.109 122.221,161.083 121.000 C 162.033 119.810,162.445 119.600,163.838 119.600 C 166.222 119.600,166.800 118.773,166.800 115.365 L 166.800 112.593 164.000 109.856 C 161.487 107.401,161.200 106.962,161.200 105.572 C 161.200 104.329,160.972 103.856,160.045 103.170 C 159.410 102.701,158.661 101.888,158.381 101.365 C 158.101 100.841,157.544 100.309,157.144 100.182 C 156.744 100.055,156.104 99.422,155.722 98.775 C 155.340 98.128,154.695 97.494,154.289 97.365 C 153.883 97.236,153.354 96.697,153.112 96.168 C 152.871 95.638,152.072 94.850,151.337 94.416 C 150.602 93.982,150.000 93.369,150.000 93.053 C 150.000 92.737,149.370 92.107,148.600 91.653 C 147.830 91.199,147.200 90.616,147.200 90.358 C 147.200 88.827,143.722 88.278,142.400 89.600 M297.193 92.981 C 297.398 93.520,298.101 94.238,298.754 94.576 C 299.408 94.915,300.059 95.555,300.200 96.000 C 300.341 96.445,300.971 97.075,301.600 97.400 C 302.229 97.725,302.862 98.364,303.006 98.820 C 303.151 99.276,303.674 99.833,304.169 100.058 C 304.663 100.284,305.378 100.993,305.757 101.634 C 306.135 102.275,306.602 102.800,306.794 102.800 C 306.986 102.800,307.426 103.083,307.771 103.429 C 308.715 104.372,308.715 123.710,307.771 124.484 C 305.906 126.015,305.600 126.477,305.600 127.767 C 305.600 129.423,305.262 130.400,304.689 130.400 C 303.590 130.400,302.800 131.765,302.800 133.662 C 302.800 134.728,302.625 135.600,302.412 135.600 C 301.905 135.600,285.600 151.905,285.600 152.412 C 285.600 152.625,284.759 152.800,283.731 152.800 C 281.897 152.800,280.403 153.590,280.397 154.562 C 280.396 154.803,279.853 155.308,279.191 155.685 C 278.528 156.062,277.867 156.692,277.722 157.085 C 277.286 158.266,276.782 158.387,272.310 158.394 L 268.019 158.400 266.745 159.800 L 265.471 161.200 255.585 161.200 C 248.028 161.200,245.598 161.079,245.272 160.687 C 244.815 160.137,244.740 157.183,244.777 141.310 L 244.800 131.221 246.000 130.600 L 247.200 129.979 247.200 125.622 C 247.200 120.585,247.307 120.172,248.820 119.390 C 249.438 119.070,250.046 118.486,250.171 118.091 C 250.296 117.696,250.939 117.054,251.599 116.664 C 252.629 116.056,252.800 115.716,252.802 114.277 C 252.804 112.650,252.976 112.431,258.602 106.862 C 261.791 103.706,264.400 100.973,264.400 100.789 C 264.400 100.605,264.756 100.341,265.192 100.203 C 265.627 100.064,266.296 99.422,266.678 98.775 C 267.060 98.128,267.696 97.496,268.091 97.371 C 268.486 97.246,269.081 96.616,269.415 95.972 C 269.933 94.969,270.254 94.800,271.637 94.800 C 273.638 94.800,274.727 94.244,275.209 92.976 L 275.580 92.000 286.200 92.000 L 296.820 92.000 297.193 92.981 M277.984 98.537 C 277.550 99.272,276.747 100.078,276.198 100.328 L 275.200 100.783 275.200 111.177 C 275.200 122.888,275.064 122.400,278.334 122.400 C 279.724 122.400,280.024 122.574,280.747 123.800 L 281.573 125.200 284.783 125.200 L 287.993 125.200 288.896 123.805 C 289.711 122.547,289.980 122.409,291.638 122.405 C 293.454 122.400,294.800 121.580,294.800 120.479 C 294.800 120.227,295.327 119.748,295.972 119.415 C 296.616 119.081,297.246 118.486,297.371 118.091 C 297.496 117.696,298.139 117.054,298.799 116.664 C 299.982 115.965,300.000 115.905,300.000 112.591 C 300.000 108.578,299.820 108.400,295.748 108.400 L 293.043 108.400 290.324 111.251 C 286.598 115.159,286.400 114.959,286.400 107.308 L 286.400 101.513 284.209 99.357 C 281.394 96.587,279.298 96.310,277.984 98.537 M258.875 128.595 C 258.394 129.207,258.000 129.864,258.000 130.054 C 258.000 130.244,257.758 130.400,257.462 130.400 C 256.462 130.400,255.600 131.827,255.600 133.484 C 255.600 134.867,255.394 135.262,254.200 136.173 L 252.800 137.241 252.800 141.773 L 252.800 146.305 251.416 147.361 C 249.835 148.566,249.897 149.319,251.648 150.225 C 252.653 150.744,252.800 151.046,252.800 152.582 C 252.800 155.134,253.448 155.600,257.000 155.600 C 260.858 155.600,261.200 155.262,261.200 151.445 C 261.200 148.636,261.243 148.509,262.600 147.308 C 263.738 146.301,264.001 145.781,264.006 144.534 C 264.016 142.132,264.275 141.966,268.030 141.958 L 271.392 141.950 272.535 143.375 C 274.335 145.619,279.413 145.496,280.610 143.180 C 280.930 142.562,281.544 141.945,281.975 141.808 C 283.658 141.274,283.356 140.131,280.923 137.824 C 279.645 136.613,278.447 135.455,278.260 135.251 C 278.073 135.047,277.578 134.502,277.160 134.040 C 276.477 133.285,275.961 133.200,272.047 133.200 L 267.695 133.200 266.627 131.800 C 265.706 130.592,265.329 130.400,263.880 130.400 C 262.438 130.400,262.027 130.194,260.975 128.941 L 259.750 127.482 258.875 128.595 M181.275 136.816 C 180.629 137.418,180.400 138.095,180.400 139.405 C 180.400 140.962,180.257 141.254,179.228 141.785 C 178.584 142.119,177.941 142.755,177.800 143.200 C 177.659 143.645,177.016 144.281,176.372 144.615 C 175.369 145.133,175.200 145.454,175.200 146.837 C 175.200 149.360,174.671 150.000,172.588 150.000 C 170.032 150.000,164.000 144.136,164.000 141.652 C 164.000 139.383,163.127 138.800,159.730 138.800 C 156.030 138.800,155.600 139.250,155.600 143.131 C 155.600 145.599,155.726 146.114,156.500 146.813 C 156.995 147.260,157.670 147.925,158.000 148.290 C 158.330 148.655,159.185 149.492,159.900 150.150 C 160.908 151.078,161.200 151.673,161.200 152.798 C 161.200 154.116,161.640 154.691,166.038 159.124 C 172.208 165.341,172.388 165.375,176.652 161.100 C 178.243 159.505,179.732 158.020,179.961 157.800 C 180.191 157.580,181.357 156.365,182.554 155.100 C 183.751 153.835,184.861 152.800,185.021 152.800 C 185.685 152.800,186.376 151.294,186.398 149.800 C 186.420 148.344,186.673 147.968,189.211 145.625 C 192.334 142.742,192.869 141.098,191.143 139.696 C 190.671 139.313,189.996 138.663,189.643 138.251 C 187.844 136.155,187.511 136.000,184.800 136.000 C 182.687 136.000,181.974 136.165,181.275 136.816 M204.107 161.300 C 200.647 164.778,200.381 165.048,199.560 165.920 C 199.208 166.294,198.533 166.913,198.060 167.296 C 197.409 167.823,197.200 168.432,197.200 169.805 C 197.200 171.349,197.052 171.684,196.202 172.072 C 195.653 172.322,194.850 173.128,194.416 173.863 C 193.982 174.598,193.357 175.200,193.028 175.200 C 192.178 175.200,191.600 176.479,191.600 178.360 C 191.600 179.623,191.405 180.076,190.700 180.451 C 187.222 182.304,188.246 189.200,192.000 189.200 C 192.941 189.200,193.775 189.452,194.084 189.829 C 195.963 192.118,195.481 192.000,202.938 192.000 C 210.793 192.000,211.200 191.853,211.200 189.025 C 211.200 186.767,207.602 183.200,205.323 183.200 C 202.507 183.200,201.522 179.496,203.965 178.094 C 204.606 177.726,205.420 176.935,205.774 176.337 C 206.127 175.738,206.744 175.145,207.144 175.018 C 207.544 174.891,208.101 174.359,208.381 173.835 C 208.661 173.312,209.410 172.499,210.045 172.030 C 210.979 171.340,211.200 170.874,211.200 169.598 C 211.200 168.303,211.452 167.790,212.600 166.745 C 214.777 164.764,214.594 163.160,211.887 160.486 C 208.792 157.429,207.862 157.526,204.107 161.300 M142.014 173.174 C 140.372 176.243,141.960 180.800,144.672 180.800 C 145.843 180.800,146.405 181.086,147.426 182.200 C 148.481 183.353,148.990 183.600,150.306 183.600 C 151.663 183.600,152.066 183.812,152.973 185.000 C 154.031 186.388,154.068 186.400,157.140 186.400 C 161.029 186.400,161.200 186.570,161.200 190.433 C 161.200 193.474,161.186 193.516,159.800 194.573 C 158.608 195.482,158.400 195.880,158.400 197.254 C 158.400 198.596,158.164 199.077,157.000 200.108 L 155.600 201.347 155.602 205.574 L 155.605 209.800 157.731 211.900 C 159.446 213.594,160.117 214.000,161.200 214.000 C 162.283 214.000,162.954 213.594,164.669 211.900 L 166.795 209.800 166.798 206.916 C 166.799 204.781,166.963 203.898,167.429 203.516 C 169.587 201.745,169.600 201.714,169.600 198.422 C 169.600 195.358,169.639 195.225,170.688 194.722 C 171.287 194.435,171.987 193.778,172.244 193.263 C 172.501 192.747,173.271 191.985,173.955 191.569 C 175.940 190.362,175.877 184.851,173.864 183.531 C 173.129 183.050,172.364 182.284,172.164 181.830 C 171.964 181.375,171.305 180.768,170.700 180.480 C 170.095 180.192,169.600 179.724,169.600 179.440 C 169.600 178.025,168.232 177.600,163.680 177.600 L 159.224 177.600 158.337 176.400 C 157.484 175.246,157.331 175.200,154.345 175.200 C 151.267 175.200,151.232 175.188,150.173 173.800 L 149.105 172.400 145.767 172.400 C 142.875 172.400,142.373 172.504,142.014 173.174 M177.100 213.263 C 172.893 217.585,172.400 218.239,172.400 219.508 C 172.400 220.739,172.031 221.281,169.600 223.627 L 166.800 226.329 166.800 230.702 C 166.800 236.118,167.005 236.400,170.940 236.400 L 173.618 236.400 175.809 234.174 C 177.655 232.298,178.002 231.715,178.010 230.474 C 178.027 228.125,181.210 225.200,183.748 225.200 C 184.767 225.200,185.600 225.360,185.600 225.555 C 185.600 226.667,193.304 233.599,194.527 233.587 C 196.784 233.565,197.200 232.904,197.200 229.339 L 197.200 226.167 194.610 223.784 C 192.301 221.658,192.019 221.235,192.010 219.873 C 192.001 218.563,182.945 208.275,181.927 208.418 C 181.857 208.428,179.685 210.608,177.100 213.263 M144.453 251.400 L 145.279 252.800 149.811 252.800 C 155.442 252.800,155.598 252.911,155.605 256.929 L 155.610 259.800 159.134 263.300 C 163.353 267.491,164.544 267.820,166.745 265.400 C 167.757 264.289,168.320 264.000,169.478 264.000 C 172.055 264.000,172.400 263.310,172.400 258.152 C 172.400 252.392,171.539 252.800,183.694 252.800 C 195.291 252.800,194.398 252.351,194.406 258.180 L 194.412 262.600 196.560 264.700 L 198.708 266.800 202.958 266.800 C 206.809 266.800,207.273 266.720,207.904 265.948 C 208.287 265.480,209.185 264.551,209.900 263.884 L 211.200 262.671 211.200 258.467 C 211.200 252.393,210.405 252.800,222.281 252.800 L 232.038 252.800 234.019 254.781 C 236.379 257.141,236.389 257.208,234.600 258.573 C 233.233 259.615,233.200 259.707,233.200 262.464 L 233.200 265.287 235.357 267.443 L 237.513 269.600 243.277 269.600 C 250.575 269.600,250.000 268.879,250.000 278.037 C 250.000 286.927,250.952 286.000,241.822 286.000 L 234.909 286.000 233.855 287.055 C 233.275 287.635,232.800 288.265,232.800 288.455 C 232.800 289.013,220.645 288.885,220.080 288.320 C 218.999 287.239,219.500 284.571,221.000 283.427 C 223.292 281.679,222.906 278.397,220.300 277.473 C 219.788 277.292,219.600 276.786,219.600 275.586 C 219.600 272.513,219.401 272.400,214.009 272.400 L 209.245 272.400 208.536 273.601 C 208.146 274.261,207.510 274.902,207.122 275.025 C 206.734 275.148,206.104 275.778,205.722 276.424 C 205.340 277.071,204.855 277.600,204.645 277.600 C 202.416 277.600,202.093 281.820,204.200 283.427 C 205.700 284.571,206.201 287.239,205.120 288.320 C 204.435 289.005,181.965 289.005,181.280 288.320 C 180.221 287.261,180.703 284.633,182.200 283.308 C 184.274 281.471,184.153 275.200,182.042 275.200 C 181.784 275.200,181.201 274.570,180.747 273.800 C 180.293 273.030,179.663 272.400,179.347 272.400 C 179.031 272.400,178.401 271.770,177.947 271.000 C 177.186 269.710,176.970 269.600,175.208 269.600 C 173.492 269.600,173.185 269.744,172.227 271.000 C 171.293 272.225,170.940 272.400,169.403 272.400 C 167.026 272.400,167.027 272.396,166.800 280.757 C 166.564 289.422,166.220 290.218,163.888 287.497 L 162.600 285.994 153.800 285.897 L 145.000 285.800 144.889 279.846 L 144.778 273.891 142.632 271.746 L 140.487 269.600 136.200 269.600 L 131.913 269.600 129.770 271.743 L 127.627 273.886 127.514 278.443 L 127.400 283.000 124.405 283.119 C 121.061 283.253,119.600 283.011,119.600 282.324 C 119.600 280.976,118.289 280.400,115.218 280.400 C 111.123 280.400,111.200 280.528,111.200 273.777 L 111.200 268.114 113.232 266.082 C 115.006 264.308,116.400 263.730,116.400 264.767 C 116.400 265.637,118.152 266.800,119.463 266.800 C 120.730 266.800,121.304 266.392,124.447 263.261 L 128.000 259.722 128.000 256.741 C 128.000 252.964,128.172 252.801,132.180 252.795 L 135.400 252.790 136.304 251.395 L 137.207 250.000 140.417 250.000 L 143.627 250.000 144.453 251.400 M133.717 293.400 L 134.834 294.800 155.942 294.800 L 177.050 294.800 177.937 296.000 L 178.824 297.200 203.002 297.200 L 227.179 297.200 227.805 295.990 L 228.431 294.780 234.915 294.890 L 241.400 295.000 241.522 296.897 C 241.638 298.704,241.548 298.890,239.641 300.797 C 237.292 303.146,237.243 303.156,236.193 301.485 C 234.758 299.199,227.600 299.505,227.600 301.852 C 227.600 302.142,227.073 302.652,226.428 302.985 C 225.784 303.319,225.154 303.914,225.029 304.309 C 224.904 304.704,224.261 305.346,223.601 305.736 C 221.730 306.841,221.834 309.749,223.800 311.317 C 225.021 312.291,225.200 312.661,225.200 314.203 C 225.200 316.435,225.808 316.800,229.526 316.800 C 232.232 316.800,232.333 316.837,233.373 318.200 C 233.960 318.970,234.682 319.600,234.978 319.600 C 236.770 319.600,236.458 326.634,234.600 328.117 L 233.200 329.234 233.200 335.001 C 233.200 339.759,233.090 340.859,232.571 341.284 C 230.411 343.057,230.400 343.083,230.400 346.413 C 230.400 349.111,230.288 349.665,229.700 349.873 C 227.905 350.510,227.600 351.200,227.600 354.619 C 227.600 358.626,228.007 358.400,220.796 358.400 C 216.294 358.400,215.139 358.518,214.629 359.029 C 213.701 359.956,213.701 370.923,214.629 371.684 C 218.030 374.475,217.541 374.800,209.938 374.800 L 203.973 374.800 203.147 376.200 C 201.914 378.290,198.630 378.301,197.044 376.222 C 196.144 375.042,195.720 374.826,194.096 374.722 C 192.025 374.589,191.061 373.110,192.672 372.537 C 194.675 371.825,194.800 371.409,194.800 365.470 C 194.800 358.024,195.178 358.400,187.695 358.400 L 181.913 358.400 179.757 360.557 L 177.600 362.713 177.600 365.425 C 177.600 368.170,178.230 369.600,179.440 369.600 C 179.724 369.600,180.192 370.095,180.480 370.700 C 180.768 371.305,181.409 371.978,181.905 372.196 C 184.038 373.134,183.454 374.800,180.993 374.800 C 179.462 374.800,179.089 374.982,178.117 376.200 C 176.447 378.293,173.288 378.293,172.053 376.200 C 171.333 374.979,171.027 374.800,169.661 374.800 C 168.341 374.800,167.927 375.020,167.027 376.200 C 166.063 377.464,165.769 377.600,164.000 377.600 C 162.231 377.600,161.937 377.464,160.973 376.200 C 160.047 374.986,159.678 374.800,158.202 374.800 C 155.927 374.800,155.202 373.966,156.473 372.814 C 156.983 372.352,157.670 371.675,158.000 371.310 C 158.330 370.945,159.185 370.108,159.900 369.450 C 161.132 368.315,161.200 368.106,161.195 365.426 L 161.190 362.600 159.156 360.500 L 157.122 358.400 151.493 358.400 C 144.028 358.400,144.400 358.032,144.400 365.423 L 144.400 371.122 145.867 372.299 C 148.482 374.397,147.712 374.844,141.708 374.712 L 136.600 374.600 136.487 369.911 L 136.375 365.221 134.987 364.163 L 133.600 363.105 133.600 354.144 L 133.600 345.183 134.600 344.727 C 135.150 344.477,135.600 344.122,135.600 343.940 C 135.600 343.757,136.410 342.845,137.400 341.914 L 139.200 340.220 139.200 336.176 L 139.200 332.131 137.700 330.739 C 136.875 329.973,135.887 328.953,135.504 328.473 C 134.975 327.809,134.379 327.600,133.017 327.600 C 131.501 327.600,131.143 327.442,130.688 326.575 C 130.393 326.010,129.712 325.330,129.175 325.063 C 128.212 324.583,128.199 324.503,128.090 318.344 L 127.980 312.110 129.390 311.035 C 131.413 309.492,131.417 307.312,129.400 305.773 C 128.203 304.860,128.000 304.468,128.000 303.074 C 128.000 301.575,127.772 301.226,125.200 298.773 C 122.032 295.752,121.924 295.467,123.617 294.591 C 124.287 294.245,125.002 293.520,125.207 292.981 C 125.564 292.043,125.733 292.000,129.090 292.000 L 132.600 292.000 133.717 293.400 M149.300 304.948 L 147.200 307.070 147.206 311.235 L 147.212 315.400 149.360 317.500 L 151.508 319.600 155.654 319.598 L 159.800 319.595 161.900 317.469 L 164.000 315.343 164.000 311.200 L 164.000 307.057 161.900 304.931 L 159.800 302.805 155.600 302.815 L 151.400 302.825 149.300 304.948 M186.662 303.531 C 186.113 304.138,186.000 305.207,186.000 309.775 L 186.000 315.287 188.157 317.443 L 190.313 319.600 193.157 319.600 C 196.078 319.600,196.168 319.559,197.916 317.429 C 198.207 317.073,199.045 316.800,199.842 316.800 C 202.662 316.800,202.800 316.539,202.800 311.209 L 202.800 306.445 201.600 305.736 C 200.940 305.346,200.400 304.886,200.400 304.714 C 200.400 302.729,188.328 301.690,186.662 303.531 M160.500 332.577 L 158.400 334.721 158.400 337.611 L 158.400 340.502 161.817 343.851 L 165.235 347.200 168.426 347.200 C 171.440 347.200,171.642 347.145,172.072 346.202 C 172.322 345.653,173.128 344.850,173.863 344.416 C 175.085 343.695,175.200 343.461,175.200 341.700 C 175.200 339.983,175.331 339.695,176.400 339.064 C 177.060 338.674,177.600 338.015,177.600 337.600 C 177.600 337.185,177.060 336.526,176.400 336.136 C 175.336 335.508,175.200 335.213,175.200 333.536 C 175.200 330.656,174.602 330.396,168.011 330.416 L 162.600 330.432 160.500 332.577 M203.451 331.143 C 203.093 331.539,202.793 332.029,202.785 332.231 C 202.776 332.434,202.191 332.963,201.485 333.407 C 199.207 334.837,199.503 342.000,201.840 342.000 C 202.124 342.000,202.592 342.495,202.880 343.100 C 203.168 343.705,203.790 344.370,204.261 344.577 C 204.733 344.785,205.417 345.460,205.782 346.077 C 206.838 347.865,212.796 347.808,213.864 346.000 C 214.254 345.340,214.776 344.800,215.024 344.800 C 215.931 344.800,216.800 343.316,216.800 341.769 C 216.800 340.454,217.043 339.990,218.300 338.900 L 219.800 337.600 218.300 336.300 C 217.022 335.193,216.800 334.757,216.800 333.362 C 216.800 330.651,216.265 330.429,209.736 330.426 C 204.818 330.424,204.020 330.515,203.451 331.143 " stroke="none" fill="#040404" fill-rule="evenodd"></path></g></svg>